<?xml version="1.0" encoding="utf-8"?>
<!-- Generator: Adobe Illustrator 16.0.3, SVG Export Plug-In . SVG Version: 6.00 Build 0)  -->
<!DOCTYPE svg PUBLIC "-//W3C//DTD SVG 1.1//EN" "http://www.w3.org/Graphics/SVG/1.1/DTD/svg11.dtd">
<svg version="1.1" xmlns="http://www.w3.org/2000/svg" xmlns:xlink="http://www.w3.org/1999/xlink" x="0px" y="0px" width="64px"
	 height="64px" viewBox="0 0 64 64" enable-background="new 0 0 64 64" xml:space="preserve">
<g id="Layer_1" display="none">
	<polygon display="inline" fill-rule="evenodd" clip-rule="evenodd" fill="#000333" points="-355.145,-330.308 -359.918,-335.082 
		-386.085,-308.918 -412.25,-335.082 -417.023,-330.308 -390.859,-304.144 -417.023,-277.977 -412.25,-273.206 -386.085,-299.37 
		-359.918,-273.206 -355.145,-277.977 -381.312,-304.144 	"/>
	<g display="inline">
		<path fill="#000333" d="M-279.546-291.154c-3.138,0-3.548-4.216-3.548-5.33c0-12.929-3.918-24.546-11.733-28.62
			c-0.781-3.995-3.652-9.042-7.102-9.042s-6.32,5.048-7.101,9.042c-7.811,4.074-11.734,15.691-11.734,28.62
			c0,1.114-0.41,5.33-3.549,5.33h-3.66l0.013,6.465h52.064l0.016-6.465H-279.546z"/>
		<path fill="#000333" d="M-301.941-274.236c4.046,0,7.814-3.772,7.814-7.815h-15.62
			C-309.747-278.008-305.981-274.236-301.941-274.236"/>
	</g>
	<path display="inline" fill="#000333" d="M-361.917-235.428h-35.42l-6.435-9.788H-416.7l0.102,6.504h9.562l12.924,29.01
		c0,0,30.681,0.089,32.107,0.089c4.594,0,6.532-2.358,6.532-6.442v-12.643C-355.473-233.207-357.431-235.428-361.917-235.428
		 M-363.528-216.056h-25.754c-0.882,0-1.6-0.725-1.6-1.619c0-0.9,0.718-1.611,1.6-1.611h25.754c0.884,0,1.611,0.71,1.611,1.611
		C-361.917-216.78-362.645-216.056-363.528-216.056 M-363.528-225.742h-28.965c-0.892,0-1.618-0.723-1.618-1.609
		c0-0.899,0.726-1.629,1.618-1.629h28.965c0.884,0,1.611,0.73,1.611,1.629C-361.917-226.465-362.645-225.742-363.528-225.742
		 M-363.556-206.559c-2.769,0-5.026,2.216-5.026,4.935c0,2.729,2.257,4.929,5.026,4.929c2.775,0,5.025-2.2,5.025-4.929
		C-358.53-204.343-360.78-206.559-363.556-206.559 M-386.197-206.559c-2.766,0-5.019,2.216-5.019,4.935
		c0,2.729,2.252,4.929,5.019,4.929c2.781,0,5.03-2.2,5.03-4.929C-381.167-204.343-383.417-206.559-386.197-206.559"/>
	<g display="inline">
		<rect x="-248.986" y="-291.576" fill-rule="evenodd" clip-rule="evenodd" fill="#000333" width="62.236" height="7.745"/>
		<rect x="-248.986" y="-308.494" fill-rule="evenodd" clip-rule="evenodd" fill="#000333" width="62.236" height="7.743"/>
		<rect x="-248.986" y="-325.413" fill-rule="evenodd" clip-rule="evenodd" fill="#000333" width="62.236" height="7.743"/>
	</g>
	<path display="inline" fill="#000333" d="M-367.725-160.324l-30.786,30.779l-6.531-6.527l30.787-30.785L-367.725-160.324
		L-367.725-160.324L-367.725-160.324z M-398.51-142.604l30.787,30.786l-6.531,6.533l-30.787-30.788L-398.51-142.604L-398.51-142.604
		L-398.51-142.604z M-398.51-129.545l-6.531-6.527l0,0L-398.51-129.545L-398.51-129.545L-398.51-129.545z M-405.042-136.072
		l6.531-6.531L-405.042-136.072L-405.042-136.072L-405.042-136.072z"/>
	<path display="inline" fill="#000333" d="M-158.253-154.729l30.779,30.785l-6.527,6.531l-30.785-30.786L-158.253-154.729
		L-158.253-154.729L-158.253-154.729z M-140.532-123.943l30.786-30.786l6.533,6.531l-30.788,30.787L-140.532-123.943
		L-140.532-123.943L-140.532-123.943z M-127.474-123.943l-6.527,6.531l0,0L-127.474-123.943L-127.474-123.943L-127.474-123.943z
		 M-134.001-117.412l-6.531-6.531L-134.001-117.412L-134.001-117.412L-134.001-117.412z"/>
	<path display="inline" fill="#000333" d="M-109.745-32.512l-30.779-30.785l6.527-6.531l30.785,30.787L-109.745-32.512
		L-109.745-32.512L-109.745-32.512z M-127.466-63.297l-30.786,30.787l-6.533-6.531l30.788-30.787L-127.466-63.297L-127.466-63.297
		L-127.466-63.297z M-140.524-63.297l6.527-6.531l0,0L-140.524-63.297L-140.524-63.297L-140.524-63.297z M-133.997-69.828
		l6.531,6.531L-133.997-69.828L-133.997-69.828L-133.997-69.828z"/>
	<path display="inline" fill="#000333" d="M-235.88-196.029l30.583-30.576l6.489,6.485l-30.583,30.581L-235.88-196.029
		L-235.88-196.029L-235.88-196.029z M-205.297-213.633l-30.583-30.582l6.489-6.489l30.583,30.584L-205.297-213.633L-205.297-213.633
		L-205.297-213.633z M-205.297-226.605l6.489,6.485l0,0L-205.297-226.605L-205.297-226.605L-205.297-226.605z M-198.808-220.12
		l-6.489,6.487L-198.808-220.12L-198.808-220.12L-198.808-220.12z"/>
	<polygon display="inline" fill="#000333" points="-302.12,-117.411 -317.595,-134.637 -333.065,-151.868 -302.12,-151.868 
		-271.158,-151.868 -286.643,-134.637 	"/>
	<g display="inline">
		<g>
			<path stroke="#AAAAAA" stroke-width="6" stroke-miterlimit="10" d="M-217.961-112.38"/>
			<path d="M-192.229-119.858h-1.391c-0.011,0-0.029,0-0.039,0c-1.184-0.057-3.463-1.041-3.617-4.356
				c-0.162-9.83-1.467-17.661-3.881-23.298c-2.803-6.556-7.023-10.289-12.899-11.415c-0.351-0.068-0.602-0.372-0.602-0.726v-1.713
				c0-1.821-1.481-3.302-3.303-3.302c-1.819,0-3.302,1.481-3.302,3.302v1.72c0,0.353-0.249,0.657-0.597,0.725
				c-5.756,1.121-10.082,4.965-12.862,11.426c-2.443,5.672-3.762,13.498-3.922,23.26c-0.155,3.337-2.433,4.321-3.615,4.378
				c-0.012,0-0.024,0-0.038,0h-1.395v-1.477h1.373c0.255-0.022,2.073-0.265,2.197-2.948c0.163-9.933,1.522-17.947,4.041-23.797
				c2.89-6.713,7.375-10.804,13.341-12.166v-1.121c0-2.635,2.145-4.779,4.778-4.779c2.636,0,4.778,2.144,4.778,4.779v1.112
				c6.008,1.352,10.511,5.439,13.387,12.161c2.521,5.895,3.831,13.692,3.997,23.833c0.126,2.705,1.997,2.911,2.194,2.925h1.375
				V-119.858z"/>
			<path d="M-191.83-113.057h-52.261c-1.764,0-3.201-1.438-3.201-3.202v-1.874c0-1.767,1.286-3.202,2.864-3.202h2.127v1.477h-2.127
				c-0.751,0-1.387,0.79-1.387,1.725v1.874c0,0.95,0.773,1.725,1.724,1.725h52.261c0.95,0,1.724-0.775,1.724-1.725v-1.874
				c0-0.935-0.637-1.725-1.39-1.725h-2.129v-1.477h2.129c1.582,0,2.868,1.436,2.868,3.202v1.874
				C-188.628-114.495-190.063-113.057-191.83-113.057z"/>
			<path d="M-217.957-105.552c-4.489,0-8.145-3.698-8.145-8.243v-0.739h16.281v0.739
				C-209.82-109.25-213.471-105.552-217.957-105.552z M-224.583-113.057c0.363,3.385,3.195,6.028,6.626,6.028
				c3.427,0,6.257-2.643,6.619-6.028H-224.583z"/>
		</g>
		<rect x="-242.301" y="-120.596" width="48.681" height="0.739"/>
		<path d="M-221.931-158.91l-0.142-0.725c1.294-0.254,2.678-0.381,4.111-0.381s2.818,0.126,4.11,0.374l-0.138,0.726
			c-1.247-0.239-2.583-0.36-3.973-0.36C-219.347-159.276-220.683-159.154-221.931-158.91z"/>
	</g>
	<path display="inline" fill="#000333" d="M-358.702-39.318h-32.426c-1.385,0-2.874-1.009-3.389-2.295l-9.366-23.395
		c-0.003-0.008-0.005-0.016-0.01-0.023l-3.661-9.144c-0.322-0.809-1.372-1.519-2.244-1.519h-6.586c-0.34,0-0.616-0.275-0.616-0.615
		c0-0.341,0.276-0.617,0.616-0.617h6.586c1.385,0,2.874,1.008,3.389,2.295l3.51,8.766h44.197c1.473,0,2.67,1.198,2.67,2.672v21.203
		C-356.032-40.518-357.229-39.318-358.702-39.318z M-402.405-64.632l9.033,22.56c0.324,0.811,1.372,1.52,2.244,1.52h32.426
		c0.793,0,1.438-0.644,1.438-1.438v-21.203c0-0.795-0.645-1.438-1.438-1.438H-402.405z"/>
	<path display="inline" fill="#000333" d="M-363.979-26.404c-2.726,0-4.944-2.232-4.944-4.975s2.219-4.975,4.944-4.975
		c2.728,0,4.945,2.232,4.945,4.975S-361.252-26.404-363.979-26.404z M-363.979-35.121c-2.046,0-3.712,1.678-3.712,3.742
		c0,2.063,1.666,3.741,3.712,3.741c2.049,0,3.713-1.679,3.713-3.741C-360.267-33.443-361.931-35.121-363.979-35.121z"/>
	<path display="inline" fill="#000333" d="M-385.419-26.404c-2.728,0-4.946-2.232-4.946-4.975s2.219-4.975,4.946-4.975
		c2.726,0,4.944,2.232,4.944,4.975S-382.693-26.404-385.419-26.404z M-385.419-35.121c-2.048,0-3.713,1.678-3.713,3.742
		c0,2.063,1.665,3.741,3.713,3.741c2.046,0,3.712-1.679,3.712-3.741C-381.707-33.443-383.373-35.121-385.419-35.121z"/>
	<rect x="-400.378" y="-57.119" display="inline" fill="#000333" width="43.729" height="0.617"/>
	<rect x="-396.563" y="-48.682" display="inline" fill="#000333" width="40.335" height="0.616"/>
	<g display="inline">
		<path fill="#000333" d="M-317.616-42.705c-2.779,0-5.132-0.985-6.801-2.85c-1.791-1.999-2.711-4.98-2.401-7.78
			c0.586-5.313,3.183-5.896,8.553-5.896c3.748,0,7.521,1.479,9.384,3.677c1.068,1.258,1.499,2.722,1.249,4.233
			C-308.341-47.039-311.999-42.705-317.616-42.705z M-318.266-58.766c-5.205,0-7.543,0.52-8.092,5.482
			c-0.295,2.672,0.581,5.516,2.286,7.418c1.58,1.764,3.812,2.695,6.455,2.695c5.358,0,8.849-4.138,9.524-8.226
			c0.23-1.394-0.152-2.691-1.144-3.857C-311.017-57.354-314.646-58.766-318.266-58.766z"/>
		<path fill="#000333" d="M-286.752-42.706c-5.617,0-9.274-4.333-9.983-8.614c-0.249-1.512,0.182-2.977,1.248-4.234
			c1.864-2.197,5.637-3.676,9.385-3.676c5.373,0,7.967,0.582,8.553,5.896c0.31,2.8-0.61,5.781-2.4,7.78
			C-281.62-43.69-283.974-42.706-286.752-42.706z M-286.103-58.766c-3.62,0-7.249,1.412-9.03,3.512
			c-0.99,1.166-1.374,2.465-1.144,3.857c0.676,4.088,4.164,8.227,9.524,8.227c2.644,0,4.876-0.932,6.455-2.695
			c1.705-1.902,2.581-4.746,2.286-7.418C-278.559-58.246-280.897-58.766-286.103-58.766z"/>
		<path fill="#000333" d="M-317.637-40.37c-7.263,0-10.862-5.03-11.81-9.739l-0.003-0.018l-0.371-2.295
			c-0.476-1.125-1.437-1.662-2.141-2.055c-0.62-0.348-1.661-1.206-1.661-3.07c0-1.602,1.304-3.052,2.906-3.234l6.446-0.731
			c1.673-0.396,3.772-0.452,5.796-0.452c5.066,0,10.126,2.088,12.457,5.107c2.488-0.604,5.142-0.609,7.664,0.004
			c2.333-3.022,7.392-5.111,12.458-5.111c0.001,0,0,0,0.001,0c2.021,0,4.122,0.056,5.795,0.452l6.446,0.731
			c1.603,0.183,2.906,1.633,2.906,3.234c0,1.864-1.042,2.723-1.66,3.07c-0.705,0.393-1.665,0.93-2.141,2.055l-0.376,2.313
			c-0.946,4.709-4.546,9.738-11.809,9.738c-3.318,0-6.356-1.185-8.787-3.429c-2.229-2.059-3.729-4.827-4.221-7.793
			c-0.103-0.624-0.119-1.244-0.05-1.849c-0.766-0.107-1.646-0.172-2.396-0.172c-0.794,0-1.725,0.117-2.39,0.221
			c0.063,0.59,0.044,1.193-0.055,1.8c-0.491,2.966-1.991,5.734-4.221,7.793C-311.281-41.556-314.319-40.37-317.637-40.37z
			 M-328.534-50.283c0.878,4.344,4.199,8.984,10.897,8.984c6.802,0,11.231-5.256,12.09-10.445c0.106-0.645,0.106-1.281,0.001-1.895
			c-0.005-0.021-0.008-0.037-0.011-0.052l-0.089-0.464l0.464-0.081c0.809-0.14,1.984-0.307,2.997-0.307
			c0.967,0,2.089,0.095,3.008,0.257l0.463,0.081l-0.086,0.46c-0.003,0.025-0.01,0.049-0.016,0.072
			c-0.002,0.011-0.005,0.021-0.006,0.033c-0.107,0.613-0.107,1.25,0,1.895c0.859,5.189,5.288,10.445,12.09,10.445
			c6.698,0,10.02-4.641,10.897-8.984l0.387-2.392l0.021-0.049c0.59-1.46,1.827-2.151,2.566-2.564
			c0.764-0.427,1.185-1.229,1.185-2.259c0-1.124-0.954-2.183-2.082-2.311l-6.53-0.746c-1.584-0.379-3.63-0.432-5.605-0.432
			c-4.926,0-9.816,2.047-11.892,4.977l-0.186,0.264l-0.313-0.082c-2.561-0.677-5.278-0.67-7.801-0.004l-0.312,0.082l-0.187-0.264
			c-2.073-2.928-6.963-4.973-11.891-4.973c-1.976,0-4.023,0.053-5.606,0.432l-0.056,0.011l-6.474,0.735
			c-1.13,0.128-2.084,1.187-2.084,2.311c0,1.03,0.422,1.832,1.185,2.259c0.739,0.413,1.979,1.104,2.568,2.565l0.02,0.048
			L-328.534-50.283z"/>
		<path fill="#000333" d="M-328.82-57.397c0,0.282-0.254,0.512-0.568,0.512h-1.675c-0.314,0-0.567-0.229-0.567-0.512l0,0
			c0-0.283,0.253-0.513,0.567-0.513h1.675C-329.074-57.91-328.82-57.681-328.82-57.397L-328.82-57.397z"/>
		<path fill="#000333" d="M-272.646-57.397c0,0.282-0.255,0.512-0.568,0.512h-1.676c-0.313,0-0.567-0.229-0.567-0.512l0,0
			c0-0.283,0.254-0.513,0.567-0.513h1.676C-272.901-57.91-272.646-57.681-272.646-57.397L-272.646-57.397z"/>
	</g>
	<g display="inline">
		<path fill="#000333" d="M-187.065-23.752h-62.291c-0.355,0-0.644-0.287-0.644-0.643v-40.72c0-0.355,0.288-0.644,0.644-0.644
			h62.291c0.354,0,0.643,0.288,0.643,0.644v40.72C-186.423-24.039-186.711-23.752-187.065-23.752z M-248.715-25.037h61.006v-39.435
			h-61.006V-25.037z"/>
		<circle fill="#000333" cx="-227.875" cy="-57.338" r="1.721"/>
		<circle fill="#000333" cx="-208.502" cy="-57.338" r="1.722"/>
		<path fill="#000333" d="M-207.859-57.883h-1.285v-12.539c0-4.986-4.058-9.044-9.043-9.044c-4.988,0-9.045,4.058-9.045,9.044
			v12.539h-1.285v-12.539c0-5.695,4.634-10.33,10.33-10.33c5.694,0,10.328,4.635,10.328,10.33V-57.883z"/>
	</g>
	<g display="inline">
		<path fill="#000333" d="M-391.23,46.983c-11.146,0-20.214-9.068-20.214-20.214c0-11.146,9.067-20.214,20.214-20.214
			c11.146,0,20.214,9.067,20.214,20.214C-371.017,37.915-380.085,46.983-391.23,46.983z M-391.23,7.309
			c-10.731,0-19.461,8.73-19.461,19.461s8.729,19.461,19.461,19.461c10.73,0,19.462-8.73,19.462-19.461S-380.5,7.309-391.23,7.309z"
			/>
		<path fill="#000333" d="M-360.697,63c-0.981,0-1.903-0.381-2.593-1.07l-13.928-13.928c-4.166,2.752-8.997,4.205-14.013,4.205
			c-14.048,0-25.477-11.43-25.477-25.479c0-14.047,11.429-25.476,25.477-25.476s25.476,11.429,25.476,25.476
			c0,5.035-1.463,9.883-4.235,14.062l13.92,13.92c0.691,0.689,1.07,1.61,1.07,2.593c0,0.98-0.379,1.902-1.07,2.592l-2.035,2.035
			C-358.795,62.619-359.716,63-360.697,63z M-377.038,46.052l14.813,14.813c0.406,0.407,0.949,0.63,1.528,0.63
			c0.578,0,1.121-0.223,1.526-0.63l2.035-2.035c0.407-0.405,0.63-0.948,0.63-1.526c0-0.58-0.223-1.123-0.63-1.529l-14.807-14.806
			l0.362-0.519c2.825-4.039,4.32-8.784,4.32-13.721c0-13.217-10.754-23.969-23.971-23.969c-13.218,0-23.97,10.752-23.97,23.969
			c0,13.218,10.752,23.972,23.97,23.972c4.917,0,9.646-1.483,13.675-4.288L-377.038,46.052z"/>
	</g>
	<g display="inline">
		<path fill="#000333" d="M-304.605,53.883l-1.093-1.094l31.776-31.776c1.707-1.706,1.707-4.483,0-6.19l-11.216-11.217
			c-0.822-0.823-1.922-1.276-3.096-1.276s-2.272,0.453-3.097,1.276l-31.776,31.777l-1.093-1.092l31.776-31.778
			c1.115-1.114,2.603-1.729,4.189-1.729c1.586,0,3.073,0.615,4.188,1.729l11.216,11.216c1.115,1.115,1.729,2.603,1.729,4.189
			c0,1.586-0.614,3.073-1.729,4.188L-304.605,53.883z"/>
		<path fill="#000333" d="M-330.385,61.875c-0.491,0-0.951-0.183-1.285-0.517c-0.38-0.38-0.563-0.923-0.505-1.491l1.863-18.07
			c0.092-0.887,0.635-2.029,1.265-2.658l5.102-5.103l1.093,1.093l-5.101,5.102c-0.376,0.375-0.767,1.195-0.821,1.725l-1.862,18.07
			c-0.012,0.105,0.011,0.19,0.06,0.24c0.05,0.05,0.134,0.072,0.241,0.061l18.07-1.863c0.527-0.054,1.35-0.444,1.725-0.818
			l5.102-5.103l1.093,1.093l-5.102,5.102c-0.63,0.63-1.772,1.173-2.658,1.266l-18.071,1.861
			C-330.247,61.871-330.316,61.875-330.385,61.875z"/>
		
			<rect x="-300.744" y="16.575" transform="matrix(0.7071 0.7071 -0.7071 0.7071 -71.9812 208.4809)" fill="#000333" width="26.171" height="1.546"/>
		<polygon fill="#000333" points="-330.221,53.935 -324.173,59.982 -330.907,60.461 		"/>
		
			<rect x="-305.556" y="7.722" transform="matrix(0.7065 0.7077 -0.7077 0.7065 -69.2717 224.4006)" fill="#000333" width="0.773" height="41.931"/>
		
			<rect x="-299.389" y="13.888" transform="matrix(0.7071 0.7071 -0.7071 0.7071 -62.9308 221.6354)" fill="#000333" width="0.772" height="41.931"/>
		
			<rect x="-330.127" y="46.345" transform="matrix(0.7071 0.7071 -0.7071 0.7071 -59.8204 237.8766)" fill="#000333" width="26.171" height="0.773"/>
		<path fill="#000333" d="M-331.538,62c-0.204,0-0.4-0.081-0.546-0.227c-0.164-0.164-0.246-0.395-0.223-0.625l1.319-12.803
			l1.538,0.158l-1.223,11.857l10.52-1.084l0.159,1.537l-11.466,1.182C-331.485,61.999-331.511,62-331.538,62z"/>
	</g>
	<g display="inline">
		<path fill="#000333" d="M-211.191,61.646c-0.856,0-1.661-0.332-2.264-0.935l-32.081-32.082c-1.118-1.117-1.857-3.223-1.683-4.795
			l1.879-16.955c0.187-1.684,1.713-3.166,3.402-3.302l16.226-1.31c0.113-0.01,0.229-0.014,0.348-0.014
			c1.542,0,3.406,0.744,4.433,1.771l32.081,32.081c0.603,0.604,0.935,1.408,0.935,2.265c0,0.858-0.332,1.662-0.935,2.265
			l-20.076,20.076C-209.53,61.313-210.334,61.646-211.191,61.646z M-225.364,3.731c-0.077,0-0.154,0.003-0.229,0.009l-16.227,1.311
			c-1.001,0.08-1.94,0.992-2.052,1.991l-1.879,16.956c-0.123,1.115,0.464,2.793,1.259,3.586l32.08,32.081
			c0.323,0.324,0.757,0.502,1.22,0.502s0.896-0.178,1.22-0.502l20.075-20.075c0.324-0.324,0.502-0.758,0.502-1.22
			c0-0.463-0.178-0.896-0.502-1.219L-221.978,5.07C-222.716,4.332-224.234,3.731-225.364,3.731z"/>
		<path fill="#000333" d="M-234.674,18.611c-2.245,0-4.072-1.827-4.072-4.072c0-2.246,1.827-4.073,4.072-4.073
			c2.246,0,4.073,1.827,4.073,4.073C-230.601,16.784-232.428,18.611-234.674,18.611z M-234.674,11.205
			c-1.838,0-3.333,1.494-3.333,3.334c0,1.838,1.495,3.333,3.333,3.333c1.84,0,3.334-1.495,3.334-3.333
			C-231.34,12.699-232.834,11.205-234.674,11.205z"/>
	</g>
	<g display="inline">
		<path fill="#000333" d="M-105.27,36.16l-32.08-32.09C-138.38,3.05-140.24,2.3-141.78,2.3c-0.12,0-0.239,0.01-0.35,0.021
			l-16.23,1.31c-1.689,0.13-3.21,1.62-3.399,3.3l-1.88,16.95c-0.17,1.58,0.569,3.68,1.68,4.8l32.08,32.08
			c0.61,0.601,1.41,0.94,2.27,0.94c0.86,0,1.66-0.34,2.261-0.94l20.08-20.069c0.6-0.61,0.93-1.41,0.93-2.271
			S-104.67,36.76-105.27,36.16z M-151.09,17.92c-1.84,0-3.34-1.49-3.34-3.33s1.5-3.33,3.34-3.33s3.33,1.49,3.33,3.33
			S-149.25,17.92-151.09,17.92z"/>
	</g>
	<g display="inline">
		<path fill="#000333" d="M-358.369,142.145h-55.211c-1.437,0-2.52-0.519-3.053-1.461c-0.535-0.941-0.421-2.137,0.317-3.368
			l27.478-45.795c0.734-1.226,1.751-1.899,2.863-1.899c1.111,0,2.129,0.674,2.863,1.899l27.477,45.795
			c0.739,1.231,0.854,2.427,0.318,3.368C-355.849,141.626-356.933,142.145-358.369,142.145z M-385.975,90.957
			c-0.624,0-1.234,0.444-1.718,1.25l-27.478,45.795c-0.473,0.789-0.582,1.526-0.301,2.023c0.281,0.498,0.97,0.783,1.891,0.783
			h55.211c0.92,0,1.609-0.285,1.891-0.783c0.281-0.497,0.172-1.234-0.301-2.023l-27.477-45.795
			C-384.74,91.401-385.351,90.957-385.975,90.957z"/>
		<g>
			<g>
				<path fill="#000333" d="M-385.975,128.016c0.609,0,1.126,0.213,1.554,0.639c0.426,0.428,0.641,0.945,0.641,1.555
					s-0.227,1.127-0.677,1.554c-0.452,0.427-0.957,0.64-1.518,0.64s-1.066-0.213-1.517-0.64c-0.452-0.427-0.677-0.944-0.677-1.554
					s0.213-1.127,0.641-1.555C-387.102,128.229-386.584,128.016-385.975,128.016z M-383.885,116.623c0,4.577-0.94,8.322-2.09,8.322
					s-2.09-3.745-2.09-8.322s0.94-8.322,2.09-8.322S-383.885,112.046-383.885,116.623z"/>
			</g>
		</g>
	</g>
	<g display="inline">
		<path fill="#000333" d="M-283.293,129.709c-0.028,0-0.058-0.003-0.087-0.012l-6.972-1.868l0.172-0.644l6.653,1.783l8.184-30.545
			l-34.053-9.125l-3.032,11.32l-0.645-0.172l3.121-11.643c0.021-0.084,0.079-0.157,0.152-0.201c0.078-0.045,0.169-0.057,0.254-0.033
			l34.695,9.296c0.086,0.023,0.158,0.078,0.202,0.155s0.057,0.168,0.034,0.254l-8.357,31.188c-0.023,0.084-0.079,0.158-0.154,0.201
			C-283.176,129.693-283.234,129.709-283.293,129.709z"/>
		<g>
			<path fill="#000333" d="M-284.344,140.244c-0.22,0-0.443-0.029-0.664-0.089l-5.411-1.449l0.306-1.147l5.411,1.451
				c0.738,0.197,1.5-0.242,1.697-0.98l10.898-40.673c0.197-0.739-0.241-1.5-0.979-1.698l-36.881-9.882
				c-0.738-0.196-1.499,0.243-1.698,0.979l-3.731,13.932l-1.147-0.309l3.733-13.93c0.367-1.37,1.78-2.187,3.151-1.818l36.88,9.881
				c1.37,0.367,2.188,1.779,1.82,3.15l-10.898,40.676C-282.166,139.484-283.208,140.244-284.344,140.244z"/>
			<path fill="#000333" d="M-292.246,147.193h-38.183c-1.417,0-2.571-1.152-2.571-2.572v-42.109c0-1.418,1.154-2.572,2.571-2.572
				h14.458v1.188h-14.458c-0.764,0-1.384,0.621-1.384,1.385v42.109c0,0.764,0.62,1.386,1.384,1.386h38.183
				c0.765,0,1.387-0.622,1.387-1.386v-6.488h1.187v6.488C-289.673,146.041-290.827,147.193-292.246,147.193z"/>
			<path fill="#000333" d="M-289.673,138.133h-1.187v-35.621c0-0.764-0.622-1.385-1.387-1.385h-23.725v-1.188h23.725
				c1.419,0,2.573,1.154,2.573,2.572V138.133z"/>
		</g>
		<path fill="#000333" d="M-293.377,136.67h-35.92c-0.183,0-0.332-0.149-0.332-0.333v-32.288c0-0.184,0.149-0.333,0.332-0.333h35.92
			c0.183,0,0.332,0.149,0.332,0.333v32.288C-293.045,136.521-293.194,136.67-293.377,136.67z M-328.963,136.004h35.253v-31.621
			h-35.253V136.004z"/>
	</g>
	<path display="inline" fill="#000333" d="M-271.358-195.522l-16.529-16.518c2.763-3.962,4.393-8.766,4.393-13.96
		c0-13.483-10.931-24.416-24.426-24.416c-13.489,0-24.424,10.933-24.424,24.416c0,13.487,10.935,24.42,24.424,24.42
		c5.207,0,10.012-1.638,13.972-4.404l16.528,16.52L-271.358-195.522z M-324.025-226c0-8.892,7.211-16.104,16.104-16.104
		c8.899,0,16.106,7.213,16.106,16.104c0,8.894-7.207,16.107-16.106,16.107C-316.814-209.894-324.025-217.107-324.025-226z"/>
	<path display="inline" fill-rule="evenodd" clip-rule="evenodd" fill="#000333" d="M-138.715-332.417c0,0,3.345,0,9.437,0
		c9.304,0,10.611,10.741,10.611,10.741s-0.036,11.305-0.036,13.966c0,0.836-5.838,16.604-5.838,16.604l18.865,9.45
		c0,0-3.382,5.868-7.087,5.868c-3.707,0-34.725,0.038-42.473,0.038c-3.594,0-7.089-5.905-7.089-5.905l18.952-9.563
		c0,0-5.943-15.195-5.943-16.491c0-3.326-0.073-14.077-0.073-14.077S-147.575-332.417-138.715-332.417z"/>
	<path display="inline" fill-rule="evenodd" clip-rule="evenodd" fill="#000333" d="M-107.229-218.533h-2.673
		c-1.222,0-2.527,0.958-2.896,2.126l-1.537,3.741c-0.578,1.079-0.339,2.683,0.521,3.545l1.905,1.898
		c0.869,0.869,0.869,2.286,0,3.157l-3.163,3.154c-0.864,0.866-2.283,0.866-3.153,0l-1.893-1.9c-0.87-0.863-2.466-1.1-3.546-0.514
		l-3.74,1.537c-1.17,0.363-2.128,1.664-2.128,2.891v2.675c0,1.222-1.007,2.227-2.232,2.227h-4.464c-1.229,0-2.232-1.005-2.232-2.227
		v-2.675c0-1.227-0.954-2.527-2.131-2.891l-3.741-1.537c-1.075-0.586-2.672-0.35-3.533,0.514l-1.905,1.9
		c-0.869,0.866-2.285,0.866-3.149,0l-3.163-3.154c-0.865-0.871-0.865-2.288,0-3.157l1.901-1.898
		c0.868-0.862,1.104-2.466,0.521-3.545l-1.54-3.741c-0.359-1.168-1.653-2.126-2.887-2.13h-2.678c-1.226,0-2.232-1.005-2.232-2.234
		v-4.463c0-1.226,1.007-2.229,2.232-2.229l2.678,0.004c1.233,0,2.527-0.962,2.895-2.132l1.532-3.741
		c0.587-1.082,0.348-2.673-0.521-3.542l-1.897-1.901c-0.869-0.867-0.869-2.29,0-3.156l3.159-3.153c0.864-0.866,2.28-0.866,3.149,0
		l1.905,1.896c0.869,0.869,2.458,1.106,3.541,0.523l3.733-1.534c1.177-0.366,2.131-1.669,2.131-2.896v-2.675
		c0-1.228,1.003-2.234,2.232-2.234h4.464c1.226,0,2.232,1.007,2.232,2.234v2.675c0,1.227,0.958,2.529,2.128,2.896l3.728,1.534
		c1.088,0.583,2.685,0.344,3.55-0.523l1.901-1.896c0.87-0.866,2.289-0.866,3.153,0l3.163,3.153c0.869,0.866,0.869,2.289,0,3.158
		l-1.905,1.899c-0.86,0.869-1.1,2.46-0.521,3.542l1.537,3.734c0.368,1.173,1.67,2.135,2.896,2.135h2.673
		c1.233,0,2.228,1.003,2.228,2.229v4.469C-105.002-219.536-105.996-218.533-107.229-218.533z M-133.995-233.352
		c-5.719,0-10.353,4.634-10.353,10.352s4.634,10.352,10.353,10.352c5.718,0,10.353-4.634,10.353-10.352
		S-128.277-233.352-133.995-233.352z"/>
	<path display="inline" fill-rule="evenodd" clip-rule="evenodd" fill="#000333" d="M-51.001-82.297l9.231,19.95l21.05,3.326
		l-15.14,15.517l3.689,21.801l-18.831-10.348l-18.834,10.348l3.694-21.801l-15.14-15.517l21.05-3.326L-51.001-82.297z"/>
	<g display="inline">
		<g>
			<path fill-rule="evenodd" clip-rule="evenodd" fill="#000333" d="M28.123,110.533c0,0.875-0.716,1.591-1.591,1.591H4.45
				c-0.875,0-1.591-0.716-1.591-1.591V88.456c0-0.875,0.716-1.591,1.591-1.591h22.082c0.875,0,1.591,0.716,1.591,1.591V110.533z"/>
		</g>
		<g>
			<path fill-rule="evenodd" clip-rule="evenodd" fill="#000333" d="M28.123,143.544c0,0.875-0.716,1.591-1.591,1.591H4.45
				c-0.875,0-1.591-0.716-1.591-1.591V121.47c0-0.875,0.716-1.591,1.591-1.591h22.082c0.875,0,1.591,0.716,1.591,1.591V143.544z"/>
		</g>
		<g>
			<path fill-rule="evenodd" clip-rule="evenodd" fill="#000333" d="M61.141,110.533c0,0.875-0.716,1.591-1.591,1.591H37.47
				c-0.875,0-1.591-0.716-1.591-1.591V88.456c0-0.875,0.716-1.591,1.591-1.591h22.08c0.875,0,1.591,0.716,1.591,1.591V110.533z"/>
		</g>
		<g>
			<path fill-rule="evenodd" clip-rule="evenodd" fill="#000333" d="M61.141,143.544c0,0.875-0.716,1.591-1.591,1.591H37.47
				c-0.875,0-1.591-0.716-1.591-1.591V121.47c0-0.875,0.716-1.591,1.591-1.591h22.08c0.875,0,1.591,0.716,1.591,1.591V143.544z"/>
		</g>
	</g>
	<g display="inline">
		<g>
			<path fill-rule="evenodd" clip-rule="evenodd" fill="#000333" d="M-21.994-297.625c0,0.875-0.716,1.591-1.591,1.591h-55.014
				c-0.875,0-1.591-0.716-1.591-1.591v-34.65c0-0.875,0.716-1.591,1.591-1.591h55.014c0.875,0,1.591,0.716,1.591,1.591V-297.625z"/>
		</g>
		<g>
			<path fill-rule="evenodd" clip-rule="evenodd" fill="#000333" d="M-21.811-275.725c0,0.875-0.716,1.591-1.591,1.591h-54.967
				c-0.875,0-1.591-0.716-1.591-1.591v-11.606c0-0.875,0.716-1.591,1.591-1.591h54.967c0.875,0,1.591,0.716,1.591,1.591V-275.725z"
				/>
		</g>
	</g>
	<g display="inline">
		<g>
			<g>
				<path fill-rule="evenodd" clip-rule="evenodd" fill="#000333" d="M-66.596-239.274c0,0.875-0.716,1.591-1.591,1.591h-11.605
					c-0.875,0-1.591-0.716-1.591-1.591v-11.601c0-0.875,0.716-1.591,1.591-1.591h11.605c0.875,0,1.591,0.716,1.591,1.591V-239.274z"
					/>
			</g>
			<g>
				<path fill-rule="evenodd" clip-rule="evenodd" fill="#000333" d="M-20.617-239.274c0,0.875-0.716,1.591-1.591,1.591h-36.271
					c-0.875,0-1.591-0.716-1.591-1.591v-11.601c0-0.875,0.716-1.591,1.591-1.591h36.271c0.875,0,1.591,0.716,1.591,1.591V-239.274z"
					/>
			</g>
		</g>
		<g>
			<g>
				<path fill-rule="evenodd" clip-rule="evenodd" fill="#000333" d="M-66.596-217.197c0,0.875-0.716,1.591-1.591,1.591h-11.605
					c-0.875,0-1.591-0.716-1.591-1.591V-228.8c0-0.875,0.716-1.591,1.591-1.591h11.605c0.875,0,1.591,0.716,1.591,1.591V-217.197z"
					/>
			</g>
			<g>
				<path fill-rule="evenodd" clip-rule="evenodd" fill="#000333" d="M-20.617-217.197c0,0.875-0.716,1.591-1.591,1.591h-36.271
					c-0.875,0-1.591-0.716-1.591-1.591V-228.8c0-0.875,0.716-1.591,1.591-1.591h36.271c0.875,0,1.591,0.716,1.591,1.591V-217.197z"
					/>
			</g>
		</g>
		<g>
			<g>
				<path fill-rule="evenodd" clip-rule="evenodd" fill="#000333" d="M-66.596-195.125c0,0.875-0.716,1.591-1.591,1.591h-11.605
					c-0.875,0-1.591-0.716-1.591-1.591v-11.603c0-0.875,0.716-1.591,1.591-1.591h11.605c0.875,0,1.591,0.716,1.591,1.591V-195.125z"
					/>
			</g>
			<g>
				<path fill-rule="evenodd" clip-rule="evenodd" fill="#000333" d="M-20.617-195.125c0,0.875-0.716,1.591-1.591,1.591h-36.271
					c-0.875,0-1.591-0.716-1.591-1.591v-11.603c0-0.875,0.716-1.591,1.591-1.591h36.271c0.875,0,1.591,0.716,1.591,1.591V-195.125z"
					/>
			</g>
		</g>
	</g>
	<g display="inline">
		<polygon fill="#000333" points="155.148,-58.227 130.229,-58.227 130.229,-83.152 117.771,-83.152 117.771,-58.227 
			92.852,-58.227 92.852,-45.773 117.771,-45.773 117.771,-20.846 130.229,-20.846 130.229,-45.773 155.148,-45.773 		"/>
	</g>
	<g display="inline">
		<g>
			<path fill-rule="evenodd" clip-rule="evenodd" fill="#000333" d="M-50.997,1.178l-25.766,23.985v1.843h51.525v-1.843
				L-50.997,1.178z M-76.763,38.826l25.766,23.996l25.76-23.996v-1.841h-51.525V38.826z"/>
		</g>
	</g>
	<g display="inline">
		<g>
			<polygon fill-rule="evenodd" clip-rule="evenodd" fill="#000333" points="-133.996,101.018 -163.89,128.845 -163.89,130.982 
				-104.11,130.982 -104.11,128.845 			"/>
		</g>
	</g>
	<path display="inline" fill-rule="evenodd" clip-rule="evenodd" fill="#000333" d="M32-252.246
		c-16.152,0-29.246,13.094-29.246,29.246S15.848-193.754,32-193.754S61.246-206.848,61.246-223S48.152-252.246,32-252.246z
		 M36.332-210.313c0,2.102-1.26,3.15-3.902,3.15h-0.975c-2.52,0-3.846-1.049-3.846-3.15v-0.666c0-2.104,1.326-3.158,3.846-3.158
		h0.975c2.695,0,3.902,1.055,3.902,3.158V-210.313z M36.73-234.588l-2.236,15.342c-0.398,1.426-0.912,2.146-2.121,2.146h-0.861
		c-1.086,0-1.607-0.721-2.006-2.146l-2.236-15.342c-0.688-2.676,1.029-4.25,3.959-4.25h1.434
		C35.701-238.838,37.418-237.264,36.73-234.588z"/>
	<path display="inline" fill-rule="evenodd" clip-rule="evenodd" fill="#000333" d="M32-333.375
		c-16.225,0-29.375,13.15-29.375,29.375S15.775-274.625,32-274.625S61.375-287.775,61.375-304S48.225-333.375,32-333.375z
		 M36.262-306.969l-3.59,12.324c-0.613,2.193-0.117,3.047,2.156,3.293c0.051,0.039-0.387,2.033-4.539,2.033
		c-5.029,0-6.301-2.279-5.359-5.494l3.537-12.156c0.609-2.074,1.604-2.764,3.592-2.764h0.832
		C34.988-309.732,36.867-309.125,36.262-306.969z M34.828-312.863c-2.77,0-4.313-1.021-4.313-2.48c0-1.91,1.82-3.338,4.531-3.338
		c2.764,0,4.307,1.02,4.307,2.479C39.354-314.291,37.533-312.863,34.828-312.863z"/>
	<path display="inline" fill-rule="evenodd" clip-rule="evenodd" fill="#000333" d="M32-165.266
		c-16.162,0-29.266,13.104-29.266,29.266c0,16.164,13.104,29.266,29.266,29.266c16.164,0,29.266-13.102,29.266-29.266
		C61.266-152.162,48.164-165.266,32-165.266z M30.775-120.025h-4.922v-7.371l4.922-2.463V-120.025z M25.854-129.859v-22.115
		L47.98-140.92L25.854-129.859z"/>
	<path display="inline" fill-rule="evenodd" clip-rule="evenodd" fill="#000333" d="M32-81.211C15.867-81.211,2.789-68.133,2.789-52
		S15.867-22.789,32-22.789S61.211-35.867,61.211-52S48.133-81.211,32-81.211z M28.551-40.887L18.102-51.525l4.877-4.738l5.6,5.695
		l12.469-12.545l4.852,4.764L28.551-40.887z"/>
	<g display="inline">
		<g>
			<path fill-rule="evenodd" clip-rule="evenodd" fill="#000333" d="M124-252.374c-16.222,0-29.375,13.148-29.375,29.373
				s13.153,29.375,29.375,29.375c16.225,0,29.375-13.15,29.375-29.375S140.225-252.374,124-252.374z M135.016-215.657
				c0,2.026-1.644,3.67-3.672,3.67h-14.688c-2.028,0-3.672-1.644-3.672-3.67v-14.689c0-2.028,1.644-3.672,3.672-3.672h14.688
				c2.028,0,3.672,1.644,3.672,3.672V-215.657z"/>
		</g>
	</g>
	<g display="inline">
		<g>
			<path fill-rule="evenodd" clip-rule="evenodd" fill="#000333" d="M295.362-274c-4.056,0-7.344,3.287-7.344,7.343
				s3.288,7.344,7.344,7.344c4.057,0,7.344-3.288,7.344-7.344S299.419-274,295.362-274z M298.116-264.821
				c0,0.507-0.411,0.917-0.918,0.917h-3.672c-0.507,0-0.918-0.411-0.918-0.917v-3.672c0-0.507,0.411-0.918,0.918-0.918h3.672
				c0.507,0,0.918,0.411,0.918,0.918V-264.821z"/>
		</g>
	</g>
	<g display="inline">
		<g>
			<path fill-rule="evenodd" clip-rule="evenodd" fill="#000333" d="M124-165.25c-16.154,0-29.25,13.097-29.25,29.25
				c0,16.156,13.096,29.25,29.25,29.25s29.25-13.095,29.25-29.25C153.25-152.153,140.154-165.25,124-165.25z M134.969-132.346
				h-21.939c-2.02,0-3.656-1.636-3.656-3.654c0-2.02,1.637-3.654,3.656-3.654h21.939c2.02,0,3.656,1.634,3.656,3.654
				C138.625-133.982,136.988-132.346,134.969-132.346z"/>
		</g>
	</g>
	<polygon display="inline" fill-rule="evenodd" clip-rule="evenodd" fill="#000333" points="550.327,-312.548 549.134,-313.741 
		542.592,-307.2 536.051,-313.741 534.857,-312.548 541.398,-306.007 534.857,-299.465 536.051,-298.272 542.592,-304.813 
		549.134,-298.272 550.327,-299.465 543.785,-306.007 	"/>
	<g display="inline">
		<path fill="#000333" d="M431.45,117.371c-0.784,0-0.887-1.053-0.887-1.332c0-3.232-0.979-6.137-2.934-7.154
			c-0.195-0.999-0.913-2.262-1.775-2.262s-1.58,1.263-1.775,2.262c-1.952,1.018-2.934,3.922-2.934,7.154
			c0,0.279-0.102,1.332-0.887,1.332h-0.915l0.003,1.617h13.016l0.004-1.617H431.45z"/>
		<path fill="#000333" d="M425.852,121.602c1.012,0,1.954-0.943,1.954-1.954H423.9C423.9,120.658,424.842,121.602,425.852,121.602"
			/>
	</g>
	<path display="inline" fill="#000333" d="M548.634-271.885h-8.854l-1.609-2.447h-3.231l0.025,1.626h2.391l3.231,7.252
		c0,0,7.67,0.022,8.026,0.022c1.148,0,1.633-0.59,1.633-1.61v-3.161C550.245-271.33,549.756-271.885,548.634-271.885
		 M548.231-267.042h-6.438c-0.221,0-0.4-0.182-0.4-0.405c0-0.225,0.18-0.402,0.4-0.402h6.438c0.221,0,0.402,0.178,0.402,0.402
		C548.634-267.224,548.452-267.042,548.231-267.042 M548.231-269.464h-7.241c-0.223,0-0.404-0.181-0.404-0.402
		c0-0.225,0.182-0.407,0.404-0.407h7.241c0.221,0,0.402,0.183,0.402,0.407C548.634-269.645,548.452-269.464,548.231-269.464
		 M548.225-264.668c-0.692,0-1.257,0.554-1.257,1.233c0,0.683,0.564,1.232,1.257,1.232c0.693,0,1.256-0.55,1.256-1.232
		C549.48-264.114,548.918-264.668,548.225-264.668 M542.564-264.668c-0.691,0-1.255,0.554-1.255,1.233
		c0,0.683,0.563,1.232,1.255,1.232c0.695,0,1.257-0.55,1.257-1.232C543.821-264.114,543.26-264.668,542.564-264.668"/>
	<g display="inline">
		<rect x="418.117" y="39.313" fill-rule="evenodd" clip-rule="evenodd" fill="#000333" width="15.559" height="1.937"/>
		<rect x="418.117" y="35.084" fill-rule="evenodd" clip-rule="evenodd" fill="#000333" width="15.559" height="1.936"/>
		<rect x="418.117" y="30.854" fill-rule="evenodd" clip-rule="evenodd" fill="#000333" width="15.559" height="1.937"/>
	</g>
	<path display="inline" fill="#000333" d="M547.256-236.413l-7.695,7.695l-1.633-1.632l7.696-7.696L547.256-236.413L547.256-236.413
		L547.256-236.413z M539.561-231.982l7.696,7.697l-1.633,1.633l-7.696-7.697L539.561-231.982L539.561-231.982L539.561-231.982z
		 M539.561-228.718l-1.633-1.632l0,0L539.561-228.718L539.561-228.718L539.561-228.718z M537.928-230.35l1.633-1.633L537.928-230.35
		L537.928-230.35L537.928-230.35z"/>
	<path display="inline" fill="#000333" d="M419.747-119.713l7.695,7.696l-1.632,1.633l-7.696-7.697L419.747-119.713L419.747-119.713
		L419.747-119.713z M424.178-112.017l7.696-7.697l1.634,1.633l-7.697,7.697L424.178-112.017L424.178-112.017L424.178-112.017z
		 M427.442-112.017l-1.632,1.633l0,0L427.442-112.017L427.442-112.017L427.442-112.017z M425.811-110.384l-1.633-1.633
		L425.811-110.384L425.811-110.384L425.811-110.384z"/>
	<path display="inline" fill="#000333" d="M431.874-71.55l-7.694-7.696l1.632-1.633l7.696,7.697L431.874-71.55L431.874-71.55
		L431.874-71.55z M427.444-79.246l-7.696,7.697l-1.634-1.633l7.697-7.697L427.444-79.246L427.444-79.246L427.444-79.246z
		 M424.18-79.246l1.632-1.633l0,0L424.18-79.246L424.18-79.246L424.18-79.246z M425.812-80.879l1.633,1.633L425.812-80.879
		L425.812-80.879L425.812-80.879z"/>
	<path display="inline" fill="#000333" d="M421.394,80.895l7.646-7.644l1.622,1.621l-7.646,7.645L421.394,80.895L421.394,80.895
		L421.394,80.895z M429.039,76.493l-7.646-7.645l1.622-1.623l7.646,7.646L429.039,76.493L429.039,76.493L429.039,76.493z
		 M429.039,73.251l1.622,1.621l0,0L429.039,73.251L429.039,73.251L429.039,73.251z M430.661,74.872l-1.622,1.621L430.661,74.872
		L430.661,74.872L430.661,74.872z"/>
	<g display="inline">
		<g>
			<path stroke="#AAAAAA" stroke-width="1.5" stroke-miterlimit="10" d="M542.592-146.705"/>
			<path d="M549.024-148.576h-0.348c-0.003,0-0.007,0-0.01,0c-0.296-0.014-0.865-0.26-0.904-1.088
				c-0.04-2.458-0.366-4.416-0.97-5.825c-0.701-1.639-1.756-2.572-3.225-2.854c-0.088-0.017-0.15-0.093-0.15-0.182v-0.429
				c0-0.455-0.371-0.824-0.826-0.824s-0.825,0.369-0.825,0.824v0.43c0,0.089-0.063,0.165-0.149,0.182
				c-1.439,0.281-2.521,1.242-3.216,2.857c-0.61,1.418-0.94,3.374-0.98,5.814c-0.038,0.834-0.608,1.08-0.903,1.094
				c-0.003,0-0.006,0-0.01,0h-0.349v-0.369h0.343c0.064-0.005,0.519-0.066,0.55-0.736c0.041-2.483,0.381-4.486,1.011-5.949
				c0.722-1.678,1.844-2.701,3.335-3.041v-0.281c0-0.658,0.536-1.194,1.194-1.194c0.659,0,1.194,0.536,1.194,1.194v0.279
				c1.502,0.338,2.628,1.359,3.347,3.039c0.631,1.475,0.958,3.424,1,5.959c0.031,0.676,0.499,0.728,0.548,0.73h0.344V-148.576z"/>
			<path d="M549.125-146.875H536.06c-0.441,0-0.801-0.359-0.801-0.801v-0.469c0-0.441,0.321-0.801,0.716-0.801h0.532v0.369h-0.532
				c-0.188,0-0.346,0.198-0.346,0.432v0.469c0,0.238,0.193,0.432,0.431,0.432h13.065c0.237,0,0.431-0.193,0.431-0.432v-0.469
				c0-0.233-0.159-0.432-0.348-0.432h-0.532v-0.369h0.532c0.396,0,0.717,0.359,0.717,0.801v0.469
				C549.925-147.234,549.566-146.875,549.125-146.875z"/>
			<path d="M542.593-144.999c-1.122,0-2.036-0.925-2.036-2.061v-0.185h4.07v0.185C544.627-145.923,543.715-144.999,542.593-144.999z
				 M540.937-146.875c0.091,0.846,0.799,1.507,1.656,1.507c0.856,0,1.564-0.661,1.655-1.507H540.937z"/>
		</g>
		<rect x="536.507" y="-148.759" width="12.17" height="0.185"/>
		<path d="M541.6-158.337l-0.035-0.182c0.323-0.063,0.669-0.096,1.027-0.096s0.705,0.031,1.027,0.094l-0.034,0.182
			c-0.312-0.061-0.646-0.09-0.993-0.09C542.245-158.429,541.911-158.399,541.6-158.337z"/>
	</g>
	<g display="inline">
		<path fill="#000333" d="M549.545,115.734h-8.106c-0.346,0-0.718-0.253-0.847-0.574l-2.342-5.849
			c-0.001-0.002-0.001-0.004-0.002-0.006l-0.916-2.286c-0.08-0.202-0.343-0.379-0.561-0.379h-1.646
			c-0.085,0-0.154-0.069-0.154-0.154s0.069-0.154,0.154-0.154h1.646c0.346,0,0.719,0.252,0.847,0.574l0.878,2.191h11.049
			c0.368,0,0.668,0.299,0.668,0.668v5.301C550.213,115.434,549.913,115.734,549.545,115.734z M538.619,109.405l2.259,5.64
			c0.081,0.203,0.343,0.381,0.561,0.381h8.106c0.198,0,0.359-0.161,0.359-0.359v-5.301c0-0.199-0.161-0.36-0.359-0.36H538.619z"/>
		<path fill="#000333" d="M548.226,118.963c-0.681,0-1.235-0.559-1.235-1.244s0.555-1.244,1.235-1.244
			c0.683,0,1.236,0.559,1.236,1.244S548.908,118.963,548.226,118.963z M548.226,116.783c-0.511,0-0.928,0.42-0.928,0.936
			s0.417,0.936,0.928,0.936c0.513,0,0.929-0.42,0.929-0.936S548.738,116.783,548.226,116.783z"/>
		<path fill="#000333" d="M542.866,118.963c-0.683,0-1.237-0.559-1.237-1.244s0.555-1.244,1.237-1.244
			c0.681,0,1.235,0.559,1.235,1.244S543.547,118.963,542.866,118.963z M542.866,116.783c-0.513,0-0.929,0.42-0.929,0.936
			s0.416,0.936,0.929,0.936c0.511,0,0.928-0.42,0.928-0.936S543.377,116.783,542.866,116.783z"/>
		<rect x="539.126" y="111.283" fill="#000333" width="10.933" height="0.154"/>
		<rect x="540.08" y="113.393" fill="#000333" width="10.084" height="0.154"/>
	</g>
	<g display="inline">
		<path fill="#000333" d="M538.733,0.859c-0.694,0-1.283-0.246-1.7-0.712c-0.447-0.5-0.678-1.245-0.601-1.945
			c0.146-1.328,0.796-1.474,2.139-1.474c0.938,0,1.88,0.369,2.346,0.919c0.268,0.314,0.375,0.681,0.313,1.059
			C541.053-0.224,540.138,0.859,538.733,0.859z M538.571-3.155c-1.301,0-1.886,0.13-2.023,1.37
			c-0.073,0.668,0.146,1.379,0.572,1.855c0.395,0.44,0.953,0.674,1.613,0.674c1.34,0,2.213-1.035,2.381-2.057
			c0.059-0.349-0.037-0.673-0.285-0.965C540.384-2.803,539.476-3.155,538.571-3.155z"/>
		<path fill="#000333" d="M546.45,0.859c-1.404,0-2.319-1.083-2.496-2.153c-0.063-0.378,0.045-0.744,0.312-1.059
			c0.466-0.55,1.409-0.919,2.347-0.919c1.343,0,1.991,0.146,2.138,1.474c0.077,0.7-0.152,1.445-0.6,1.945
			C547.732,0.613,547.145,0.859,546.45,0.859z M546.612-3.155c-0.905,0-1.813,0.353-2.258,0.878
			c-0.248,0.291-0.344,0.616-0.286,0.965c0.169,1.021,1.041,2.057,2.382,2.057c0.66,0,1.219-0.233,1.613-0.674
			c0.426-0.477,0.646-1.188,0.571-1.855C548.498-3.025,547.913-3.155,546.612-3.155z"/>
		<path fill="#000333" d="M538.729,1.443c-1.815,0-2.716-1.258-2.952-2.435l-0.001-0.005l-0.093-0.573
			c-0.119-0.281-0.359-0.415-0.535-0.514c-0.155-0.087-0.415-0.302-0.415-0.768c0-0.4,0.325-0.763,0.727-0.809l1.611-0.183
			c0.418-0.1,0.943-0.113,1.449-0.113c1.267,0,2.531,0.521,3.114,1.277c0.622-0.151,1.285-0.152,1.916,0
			c0.583-0.755,1.848-1.277,3.114-1.277l0,0c0.505,0,1.03,0.014,1.449,0.113l1.611,0.183c0.4,0.046,0.727,0.408,0.727,0.809
			c0,0.466-0.261,0.681-0.415,0.768c-0.176,0.099-0.416,0.232-0.535,0.514l-0.094,0.578c-0.236,1.177-1.137,2.435-2.952,2.435
			c-0.83,0-1.589-0.296-2.197-0.857c-0.558-0.515-0.932-1.207-1.055-1.948c-0.026-0.155-0.03-0.311-0.013-0.462
			c-0.191-0.027-0.412-0.043-0.599-0.043c-0.198,0-0.432,0.029-0.598,0.055c0.016,0.148,0.011,0.299-0.014,0.45
			c-0.123,0.741-0.498,1.434-1.056,1.948C540.317,1.147,539.558,1.443,538.729,1.443z M536.004-1.035
			c0.22,1.086,1.05,2.246,2.725,2.246c1.7,0,2.808-1.313,3.022-2.611c0.026-0.16,0.026-0.32,0-0.473
			c-0.001-0.006-0.002-0.01-0.002-0.014l-0.022-0.115l0.116-0.021c0.201-0.035,0.496-0.077,0.749-0.077
			c0.241,0,0.522,0.023,0.752,0.064l0.115,0.021L543.438-1.9c-0.001,0.007-0.002,0.013-0.004,0.019c0,0.003-0.001,0.005-0.001,0.009
			c-0.027,0.152-0.027,0.313,0,0.473c0.215,1.298,1.322,2.611,3.022,2.611c1.675,0,2.505-1.16,2.724-2.246l0.098-0.598l0.005-0.012
			c0.147-0.365,0.456-0.538,0.642-0.642c0.19-0.106,0.296-0.307,0.296-0.564c0-0.281-0.238-0.546-0.521-0.577l-1.633-0.188
			c-0.396-0.094-0.907-0.107-1.401-0.107c-1.231,0-2.454,0.512-2.973,1.244l-0.046,0.066l-0.079-0.021
			c-0.64-0.169-1.319-0.167-1.95,0l-0.078,0.02l-0.046-0.065c-0.519-0.731-1.741-1.243-2.973-1.243
			c-0.494,0-1.006,0.014-1.401,0.107l-0.015,0.003l-1.618,0.185c-0.282,0.031-0.521,0.296-0.521,0.577
			c0,0.258,0.105,0.458,0.297,0.564c0.185,0.104,0.494,0.276,0.642,0.642l0.005,0.012L536.004-1.035z"/>
		<path fill="#000333" d="M535.933-2.813c0,0.071-0.063,0.128-0.143,0.128h-0.418c-0.079,0-0.143-0.057-0.143-0.128l0,0
			c0-0.07,0.063-0.128,0.143-0.128h0.418C535.869-2.941,535.933-2.884,535.933-2.813L535.933-2.813z"/>
		<path fill="#000333" d="M549.976-2.813c0,0.071-0.063,0.128-0.142,0.128h-0.419c-0.078,0-0.142-0.057-0.142-0.128l0,0
			c0-0.07,0.063-0.128,0.142-0.128h0.419C549.912-2.941,549.976-2.884,549.976-2.813L549.976-2.813z"/>
	</g>
	<g display="inline">
		<path fill="#000333" d="M550.378-109.192h-15.572c-0.089,0-0.161-0.072-0.161-0.16v-10.18c0-0.09,0.072-0.162,0.161-0.162h15.572
			c0.089,0,0.161,0.072,0.161,0.162v10.18C550.539-109.264,550.467-109.192,550.378-109.192z M534.966-109.513h15.251v-9.858
			h-15.251V-109.513z"/>
		<circle fill="#000333" cx="540.175" cy="-117.588" r="0.43"/>
		<circle fill="#000333" cx="545.019" cy="-117.588" r="0.43"/>
		<path fill="#000333" d="M545.18-117.725h-0.321v-3.135c0-1.246-1.015-2.26-2.261-2.26c-1.247,0-2.262,1.014-2.262,2.26v3.135
			h-0.32v-3.135c0-1.424,1.158-2.582,2.582-2.582s2.582,1.158,2.582,2.582V-117.725z"/>
	</g>
	<g display="inline">
		<path fill="#000333" d="M541.248,151.146c-2.786,0-5.054-2.268-5.054-5.054c0-2.787,2.268-5.054,5.054-5.054
			s5.054,2.267,5.054,5.054C546.302,148.878,544.034,151.146,541.248,151.146z M541.248,141.227c-2.683,0-4.865,2.183-4.865,4.865
			s2.183,4.865,4.865,4.865s4.865-2.183,4.865-4.865S543.931,141.227,541.248,141.227z"/>
		<path fill="#000333" d="M548.882,155.149c-0.246,0-0.477-0.095-0.648-0.268l-3.482-3.481c-1.041,0.688-2.249,1.051-3.503,1.051
			c-3.512,0-6.369-2.857-6.369-6.369s2.857-6.369,6.369-6.369s6.369,2.857,6.369,6.369c0,1.258-0.366,2.471-1.06,3.515l3.48,3.48
			c0.173,0.172,0.268,0.402,0.268,0.647c0,0.246-0.095,0.477-0.268,0.648l-0.509,0.509
			C549.356,155.055,549.127,155.149,548.882,155.149z M544.796,150.912l3.703,3.703c0.102,0.102,0.237,0.158,0.383,0.158
			c0.145,0,0.279-0.057,0.381-0.158l0.509-0.509c0.103-0.101,0.157-0.237,0.157-0.382s-0.055-0.28-0.157-0.382l-3.701-3.701
			l0.091-0.13c0.706-1.01,1.08-2.196,1.08-3.43c0-3.305-2.689-5.992-5.993-5.992c-3.305,0-5.992,2.688-5.992,5.992
			c0,3.304,2.688,5.992,5.992,5.992c1.229,0,2.411-0.371,3.419-1.072L544.796,150.912z"/>
	</g>
	<g display="inline">
		<path fill="#000333" d="M541.867,43.308l-0.273-0.273l7.944-7.944c0.427-0.426,0.427-1.121,0-1.547l-2.804-2.805
			c-0.206-0.206-0.48-0.319-0.774-0.319c-0.293,0-0.568,0.113-0.773,0.319l-7.944,7.944l-0.273-0.272l7.944-7.945
			c0.278-0.278,0.65-0.432,1.047-0.432s0.769,0.153,1.047,0.432l2.805,2.805c0.278,0.278,0.432,0.65,0.432,1.047
			s-0.153,0.769-0.432,1.047L541.867,43.308z"/>
		<path fill="#000333" d="M535.423,45.306c-0.123,0-0.238-0.046-0.322-0.129c-0.095-0.095-0.141-0.231-0.126-0.373l0.466-4.518
			c0.023-0.222,0.159-0.507,0.316-0.665l1.275-1.275l0.273,0.273l-1.275,1.275c-0.094,0.094-0.191,0.299-0.205,0.432l-0.466,4.518
			c-0.003,0.025,0.003,0.047,0.015,0.06c0.013,0.013,0.033,0.019,0.061,0.015l4.518-0.465c0.132-0.014,0.338-0.111,0.432-0.205
			l1.275-1.275l0.272,0.273l-1.275,1.275c-0.157,0.157-0.442,0.293-0.664,0.316l-4.519,0.465
			C535.457,45.305,535.439,45.306,535.423,45.306z"/>
		
			<rect x="542.832" y="33.981" transform="matrix(0.7071 0.7071 -0.7071 0.7071 184.1149 -376.1441)" fill="#000333" width="6.542" height="0.386"/>
		<polygon fill="#000333" points="535.464,43.32 536.976,44.832 535.292,44.952 		"/>
		
			<rect x="541.63" y="31.768" transform="matrix(0.7046 0.7096 -0.7096 0.7046 186.3061 -373.4951)" fill="#000333" width="0.193" height="10.482"/>
		
			<rect x="543.171" y="33.308" transform="matrix(0.7096 0.7046 -0.7046 0.7096 184.9059 -371.5754)" fill="#000333" width="0.193" height="10.483"/>
		
			<rect x="535.487" y="41.424" transform="matrix(0.7071 0.7071 -0.7071 0.7071 187.1576 -368.7984)" fill="#000333" width="6.542" height="0.193"/>
		<path fill="#000333" d="M535.134,45.337c-0.051,0-0.1-0.021-0.137-0.057c-0.041-0.041-0.061-0.099-0.055-0.156l0.329-3.2
			l0.385,0.039l-0.306,2.965l2.63-0.271l0.04,0.385l-2.867,0.295C535.147,45.337,535.141,45.337,535.134,45.337z"/>
	</g>
	<g display="inline">
		<path fill="#000333" d="M544.189-69.152c-0.214,0-0.415-0.084-0.565-0.234l-8.021-8.02c-0.28-0.279-0.465-0.807-0.421-1.199
			l0.47-4.238c0.047-0.422,0.429-0.792,0.851-0.826l4.057-0.327C540.588-84,540.616-84,540.646-84c0.386,0,0.852,0.186,1.108,0.441
			l8.02,8.021c0.15,0.15,0.234,0.352,0.234,0.566c0,0.214-0.084,0.414-0.234,0.565l-5.019,5.019
			C544.604-69.236,544.403-69.152,544.189-69.152z M540.646-83.631c-0.02,0-0.039,0-0.058,0.002l-4.057,0.328
			c-0.25,0.02-0.484,0.248-0.513,0.498l-0.47,4.238c-0.031,0.279,0.116,0.698,0.314,0.896l8.021,8.02
			c0.081,0.082,0.188,0.127,0.305,0.127s0.224-0.045,0.305-0.127l5.019-5.018c0.082-0.082,0.126-0.189,0.126-0.305
			c0-0.117-0.044-0.225-0.126-0.305l-8.02-8.021C541.309-83.48,540.929-83.631,540.646-83.631z"/>
		<path fill="#000333" d="M538.319-79.911c-0.562,0-1.019-0.456-1.019-1.019c0-0.561,0.457-1.018,1.019-1.018
			c0.561,0,1.018,0.457,1.018,1.018C539.337-80.367,538.88-79.911,538.319-79.911z M538.319-81.763c-0.46,0-0.834,0.374-0.834,0.833
			c0,0.46,0.374,0.834,0.834,0.834c0.459,0,0.833-0.374,0.833-0.834C539.152-81.389,538.778-81.763,538.319-81.763z"/>
	</g>
	<g display="inline">
		<path fill="#000333" d="M432.993-38.297l-8.021-8.022c-0.257-0.255-0.723-0.442-1.107-0.442c-0.029,0-0.06,0.002-0.087,0.005
			l-4.058,0.327c-0.423,0.032-0.803,0.405-0.85,0.825l-0.471,4.237c-0.042,0.396,0.143,0.92,0.42,1.2l8.021,8.021
			c0.152,0.149,0.353,0.234,0.567,0.234s0.415-0.085,0.564-0.234l5.021-5.018c0.149-0.152,0.232-0.353,0.232-0.568
			C433.226-37.947,433.143-38.146,432.993-38.297z M421.538-42.857c-0.46,0-0.835-0.372-0.835-0.832s0.375-0.833,0.835-0.833
			s0.833,0.373,0.833,0.833S421.998-42.857,421.538-42.857z"/>
	</g>
	<g display="inline">
		<path fill="#000333" d="M549.494-32.132h-13.803c-0.359,0-0.631-0.13-0.764-0.365c-0.134-0.235-0.105-0.534,0.079-0.842
			l6.87-11.449c0.184-0.307,0.438-0.475,0.715-0.475c0.278,0,0.533,0.168,0.717,0.475l6.869,11.449
			c0.185,0.308,0.213,0.606,0.079,0.842C550.124-32.262,549.853-32.132,549.494-32.132z M542.592-44.929
			c-0.155,0-0.309,0.111-0.429,0.313l-6.87,11.449c-0.117,0.197-0.145,0.381-0.074,0.506c0.07,0.124,0.242,0.195,0.473,0.195h13.803
			c0.229,0,0.402-0.071,0.473-0.195c0.07-0.125,0.043-0.309-0.076-0.506l-6.869-11.449C542.9-44.817,542.748-44.929,542.592-44.929z
			"/>
		<g>
			<g>
				<path fill="#000333" d="M542.592-35.664c0.152,0,0.282,0.054,0.389,0.159c0.106,0.107,0.16,0.236,0.16,0.389
					s-0.057,0.282-0.169,0.389c-0.113,0.107-0.239,0.16-0.38,0.16c-0.14,0-0.266-0.053-0.379-0.16
					c-0.113-0.106-0.169-0.236-0.169-0.389s0.054-0.281,0.16-0.389C542.311-35.61,542.439-35.664,542.592-35.664z M543.115-38.512
					c0,1.144-0.235,2.08-0.523,2.08c-0.287,0-0.522-0.937-0.522-2.08c0-1.145,0.235-2.081,0.522-2.081
					C542.88-40.593,543.115-39.656,543.115-38.512z"/>
			</g>
		</g>
	</g>
	<g display="inline">
		<path fill="#000333" d="M547.253,78.332c-0.007,0-0.015,0-0.021-0.002l-1.743-0.468l0.043-0.161l1.663,0.446l2.046-7.636
			l-8.513-2.281l-0.759,2.83l-0.16-0.043l0.779-2.911c0.006-0.021,0.021-0.039,0.039-0.05c0.02-0.012,0.042-0.015,0.063-0.009
			l8.674,2.324c0.021,0.006,0.04,0.02,0.051,0.038c0.012,0.02,0.015,0.043,0.009,0.064l-2.089,7.797
			c-0.006,0.021-0.021,0.039-0.039,0.05C547.282,78.328,547.268,78.332,547.253,78.332z"/>
		<g>
			<path fill="#000333" d="M546.99,80.967c-0.055,0-0.111-0.008-0.166-0.022l-1.353-0.362l0.076-0.287l1.353,0.363
				c0.185,0.049,0.375-0.061,0.425-0.246l2.725-10.168c0.049-0.185-0.061-0.375-0.245-0.424l-9.221-2.471
				c-0.184-0.049-0.374,0.061-0.424,0.244l-0.934,3.483L538.94,71l0.933-3.482c0.092-0.343,0.445-0.547,0.788-0.455l9.22,2.471
				c0.343,0.092,0.547,0.445,0.455,0.787l-2.725,10.17C547.535,80.776,547.274,80.967,546.99,80.967z"/>
			<path fill="#000333" d="M545.015,82.703h-9.546c-0.354,0-0.643-0.287-0.643-0.643V71.533c0-0.354,0.289-0.643,0.643-0.643h3.615
				v0.297h-3.615c-0.19,0-0.346,0.154-0.346,0.346v10.527c0,0.191,0.155,0.347,0.346,0.347h9.546c0.191,0,0.347-0.155,0.347-0.347
				v-1.622h0.297v1.622C545.658,82.416,545.369,82.703,545.015,82.703z"/>
			<path fill="#000333" d="M545.658,80.438h-0.297v-8.905c0-0.191-0.155-0.346-0.347-0.346h-5.931v-0.297h5.931
				c0.354,0,0.644,0.288,0.644,0.643V80.438z"/>
		</g>
		<path fill="#000333" d="M544.732,80.072h-8.98c-0.046,0-0.083-0.037-0.083-0.083v-8.071c0-0.047,0.037-0.084,0.083-0.084h8.98
			c0.045,0,0.082,0.037,0.082,0.084v8.071C544.814,80.035,544.777,80.072,544.732,80.072z M535.836,79.906h8.813v-7.905h-8.813
			V79.906z"/>
	</g>
	<path display="inline" fill="#000333" d="M433.497,153.535l-4.132-4.129c0.69-0.99,1.098-2.191,1.098-3.49
		c0-3.371-2.732-6.104-6.106-6.104c-3.372,0-6.105,2.732-6.105,6.104s2.733,6.105,6.105,6.105c1.302,0,2.503-0.41,3.493-1.102
		l4.132,4.13L433.497,153.535z M420.331,145.916c0-2.223,1.803-4.026,4.025-4.026c2.225,0,4.027,1.804,4.027,4.026
		s-1.803,4.026-4.027,4.026C422.134,149.942,420.331,148.139,420.331,145.916z"/>
	<path display="inline" fill-rule="evenodd" clip-rule="evenodd" fill="#000333" d="M424.632-198.083c0,0,0.836,0,2.359,0
		c2.325,0,2.652,2.686,2.652,2.686s-0.009,2.826-0.009,3.491c0,0.209-1.459,4.151-1.459,4.151l4.716,2.363
		c0,0-0.846,1.467-1.771,1.467c-0.927,0-8.682,0.009-10.618,0.009c-0.898,0-1.772-1.476-1.772-1.476l4.738-2.391
		c0,0-1.486-3.799-1.486-4.123c0-0.831-0.019-3.519-0.019-3.519S422.417-198.083,424.632-198.083z"/>
	<path display="inline" fill-rule="evenodd" clip-rule="evenodd" fill="#000333" d="M432.503-151.632h-0.668
		c-0.306,0-0.632,0.24-0.724,0.532l-0.385,0.935c-0.145,0.27-0.084,0.67,0.131,0.886l0.477,0.475c0.217,0.217,0.217,0.571,0,0.789
		l-0.791,0.789c-0.217,0.216-0.571,0.216-0.789,0l-0.473-0.476c-0.218-0.216-0.616-0.274-0.887-0.128l-0.935,0.384
		c-0.293,0.091-0.532,0.416-0.532,0.723v0.669c0,0.306-0.252,0.557-0.559,0.557h-1.115c-0.308,0-0.559-0.251-0.559-0.557v-0.669
		c0-0.307-0.238-0.632-0.532-0.723l-0.936-0.384c-0.269-0.146-0.668-0.088-0.884,0.128l-0.476,0.476
		c-0.218,0.216-0.571,0.216-0.788,0l-0.79-0.789c-0.217-0.218-0.217-0.572,0-0.789l0.476-0.475c0.217-0.216,0.275-0.616,0.13-0.886
		l-0.386-0.935c-0.09-0.292-0.413-0.532-0.721-0.533h-0.67c-0.307,0-0.559-0.251-0.559-0.559v-1.116
		c0-0.307,0.252-0.557,0.559-0.557l0.67,0.001c0.308,0,0.631-0.241,0.723-0.533l0.384-0.936c0.146-0.271,0.087-0.668-0.13-0.886
		l-0.475-0.475c-0.218-0.217-0.218-0.573,0-0.789l0.789-0.789c0.217-0.216,0.57-0.216,0.788,0l0.476,0.475
		c0.218,0.217,0.615,0.276,0.886,0.131l0.934-0.384c0.294-0.092,0.532-0.417,0.532-0.724v-0.669c0-0.307,0.251-0.559,0.559-0.559
		h1.115c0.307,0,0.559,0.252,0.559,0.559v0.669c0,0.307,0.239,0.632,0.532,0.724l0.932,0.384c0.272,0.146,0.671,0.086,0.888-0.131
		l0.475-0.475c0.218-0.216,0.572-0.216,0.789,0l0.791,0.789c0.217,0.216,0.217,0.572,0,0.79l-0.477,0.475
		c-0.215,0.218-0.275,0.615-0.131,0.886l0.385,0.934c0.092,0.293,0.417,0.534,0.724,0.534h0.668c0.309,0,0.558,0.25,0.558,0.557
		v1.117C433.061-151.883,432.812-151.632,432.503-151.632z M425.812-155.337c-1.43,0-2.588,1.158-2.588,2.588
		s1.158,2.588,2.588,2.588s2.589-1.158,2.589-2.588S427.241-155.337,425.812-155.337z"/>
	<path display="inline" fill-rule="evenodd" clip-rule="evenodd" fill="#000333" d="M425.811-312.783l2.308,4.987l5.263,0.832
		l-3.785,3.879l0.922,5.45l-4.707-2.587l-4.709,2.587l0.924-5.45l-3.785-3.879l5.263-0.832L425.811-312.783z"/>
	<g display="inline">
		<g>
			<path fill-rule="evenodd" clip-rule="evenodd" fill="#000333" d="M294.394,35.619c0,0.219-0.179,0.397-0.397,0.397h-5.521
				c-0.219,0-0.397-0.179-0.397-0.397v-5.521c0-0.219,0.179-0.397,0.397-0.397h5.521c0.219,0,0.397,0.179,0.397,0.397V35.619z"/>
		</g>
		<g>
			<path fill-rule="evenodd" clip-rule="evenodd" fill="#000333" d="M294.394,43.872c0,0.219-0.179,0.397-0.397,0.397h-5.521
				c-0.219,0-0.397-0.179-0.397-0.397v-5.52c0-0.219,0.179-0.397,0.397-0.397h5.521c0.219,0,0.397,0.179,0.397,0.397V43.872z"/>
		</g>
		<g>
			<path fill-rule="evenodd" clip-rule="evenodd" fill="#000333" d="M302.647,35.619c0,0.219-0.179,0.397-0.397,0.397h-5.521
				c-0.219,0-0.397-0.179-0.397-0.397v-5.521c0-0.219,0.179-0.397,0.397-0.397h5.521c0.219,0,0.397,0.179,0.397,0.397V35.619z"/>
		</g>
		<g>
			<path fill-rule="evenodd" clip-rule="evenodd" fill="#000333" d="M302.647,43.872c0,0.219-0.179,0.397-0.397,0.397h-5.521
				c-0.219,0-0.397-0.179-0.397-0.397v-5.52c0-0.219,0.179-0.397,0.397-0.397h5.521c0.219,0,0.397,0.179,0.397,0.397V43.872z"/>
		</g>
	</g>
	<g display="inline">
		<g>
			<path fill-rule="evenodd" clip-rule="evenodd" fill="#000333" d="M302.614,77.061c0,0.219-0.179,0.397-0.397,0.397h-13.754
				c-0.219,0-0.397-0.179-0.397-0.397v-8.663c0-0.219,0.179-0.397,0.397-0.397h13.754c0.219,0,0.397,0.179,0.397,0.397V77.061z"/>
		</g>
		<g>
			<path fill-rule="evenodd" clip-rule="evenodd" fill="#000333" d="M302.659,82.536c0,0.219-0.179,0.397-0.397,0.397H288.52
				c-0.219,0-0.397-0.179-0.397-0.397v-2.902c0-0.219,0.179-0.397,0.397-0.397h13.742c0.219,0,0.397,0.179,0.397,0.397V82.536z"/>
		</g>
	</g>
	<g display="inline">
		<g>
			<g>
				<path fill-rule="evenodd" clip-rule="evenodd" fill="#000333" d="M291.464,108.737c0,0.219-0.179,0.397-0.397,0.397h-2.902
					c-0.219,0-0.397-0.179-0.397-0.397v-2.9c0-0.219,0.179-0.397,0.397-0.397h2.902c0.219,0,0.397,0.179,0.397,0.397V108.737z"/>
			</g>
			<g>
				<path fill-rule="evenodd" clip-rule="evenodd" fill="#000333" d="M302.958,108.737c0,0.219-0.179,0.397-0.397,0.397h-9.068
					c-0.219,0-0.397-0.179-0.397-0.397v-2.9c0-0.219,0.179-0.397,0.397-0.397h9.068c0.219,0,0.397,0.179,0.397,0.397V108.737z"/>
			</g>
		</g>
		<g>
			<g>
				<path fill-rule="evenodd" clip-rule="evenodd" fill="#000333" d="M291.464,114.257c0,0.219-0.179,0.397-0.397,0.397h-2.902
					c-0.219,0-0.397-0.179-0.397-0.397v-2.901c0-0.219,0.179-0.397,0.397-0.397h2.902c0.219,0,0.397,0.179,0.397,0.397V114.257z"/>
			</g>
			<g>
				<path fill-rule="evenodd" clip-rule="evenodd" fill="#000333" d="M302.958,114.257c0,0.219-0.179,0.397-0.397,0.397h-9.068
					c-0.219,0-0.397-0.179-0.397-0.397v-2.901c0-0.219,0.179-0.397,0.397-0.397h9.068c0.219,0,0.397,0.179,0.397,0.397V114.257z"/>
			</g>
		</g>
		<g>
			<g>
				<path fill-rule="evenodd" clip-rule="evenodd" fill="#000333" d="M291.464,119.774c0,0.219-0.179,0.397-0.397,0.397h-2.902
					c-0.219,0-0.397-0.179-0.397-0.397v-2.901c0-0.219,0.179-0.397,0.397-0.397h2.902c0.219,0,0.397,0.179,0.397,0.397V119.774z"/>
			</g>
			<g>
				<path fill-rule="evenodd" clip-rule="evenodd" fill="#000333" d="M302.958,119.774c0,0.219-0.179,0.397-0.397,0.397h-9.068
					c-0.219,0-0.397-0.179-0.397-0.397v-2.901c0-0.219,0.179-0.397,0.397-0.397h9.068c0.219,0,0.397,0.179,0.397,0.397V119.774z"/>
			</g>
		</g>
	</g>
	<g display="inline">
		<polygon fill="#000333" points="303.149,-191.769 296.919,-191.769 296.919,-198 293.806,-198 293.806,-191.769 287.575,-191.769 
			287.575,-188.655 293.806,-188.655 293.806,-182.423 296.919,-182.423 296.919,-188.655 303.149,-188.655 		"/>
	</g>
	<g display="inline">
		<g>
			<path fill-rule="evenodd" clip-rule="evenodd" fill="#000333" d="M425.812-274.654l-6.441,5.997v0.46h12.881v-0.46
				L425.812-274.654z M419.37-265.242l6.441,5.999l6.439-5.999v-0.46H419.37V-265.242z"/>
		</g>
	</g>
	<g display="inline">
		<g>
			<polygon fill-rule="evenodd" clip-rule="evenodd" fill="#000333" points="418.338,-231.367 418.338,-230.833 425.812,-223.873 
				433.283,-230.833 433.283,-231.367 			"/>
		</g>
	</g>
	<g display="inline">
		<g>
			<polygon fill-rule="evenodd" clip-rule="evenodd" fill="#000333" points="425.812,-3.746 418.338,3.211 418.338,3.746 
				433.283,3.746 433.283,3.211 			"/>
		</g>
	</g>
	<g display="inline">
		<g>
			<path fill-rule="evenodd" clip-rule="evenodd" fill="#000333" d="M287.728,141.387v1.909h15.27v-1.909H287.728z M287.728,147.43
				h15.27v-1.91h-15.27V147.43z M287.728,151.563h15.27v-1.91h-15.27V151.563z"/>
		</g>
	</g>
	<g display="inline">
		
			<rect x="287.409" y="-0.269" transform="matrix(0.707 0.7072 -0.7072 0.707 86.3868 -205.8751)" fill="#000333" width="8.538" height="3.195"/>
		
			<rect x="290.785" y="-2.189" transform="matrix(0.7071 -0.7071 0.7071 0.7071 87.5112 210.1038)" fill="#000333" width="13.215" height="3.195"/>
	</g>
	<path display="inline" fill-rule="evenodd" clip-rule="evenodd" fill="#000333" d="M295.362-122.36
		c-4.038,0-7.312,3.273-7.312,7.312s3.273,7.312,7.312,7.312s7.312-3.273,7.312-7.312S299.4-122.36,295.362-122.36z
		 M296.445-111.877c0,0.525-0.315,0.788-0.976,0.788h-0.244c-0.629,0-0.961-0.262-0.961-0.788v-0.167c0-0.526,0.332-0.79,0.961-0.79
		h0.244c0.674,0,0.976,0.264,0.976,0.79V-111.877z M296.545-117.946l-0.56,3.835c-0.1,0.356-0.228,0.537-0.529,0.537h-0.216
		c-0.271,0-0.401-0.18-0.501-0.537l-0.56-3.835c-0.172-0.669,0.257-1.063,0.989-1.063h0.359
		C296.288-119.008,296.717-118.615,296.545-117.946z"/>
	<path display="inline" fill-rule="evenodd" clip-rule="evenodd" fill="#000333" d="M295.092-160.072
		c-4.057,0-7.344,3.288-7.344,7.344s3.287,7.344,7.344,7.344s7.344-3.288,7.344-7.344S299.148-160.072,295.092-160.072z
		 M296.157-153.471l-0.897,3.081c-0.153,0.548-0.029,0.762,0.539,0.823c0.013,0.01-0.097,0.508-1.135,0.508
		c-1.258,0-1.575-0.57-1.34-1.374l0.885-3.039c0.152-0.519,0.4-0.691,0.897-0.691h0.208
		C295.839-154.162,296.309-154.01,296.157-153.471z M295.799-154.944c-0.692,0-1.078-0.255-1.078-0.62
		c0-0.478,0.455-0.834,1.133-0.834c0.691,0,1.076,0.255,1.076,0.62C296.93-155.301,296.475-154.944,295.799-154.944z"/>
	<path display="inline" fill-rule="evenodd" clip-rule="evenodd" fill="#000333" d="M295.362-84c-4.041,0-7.316,3.276-7.316,7.316
		c0,4.041,3.275,7.316,7.316,7.316s7.316-3.275,7.316-7.316C302.679-80.724,299.403-84,295.362-84z M295.056-72.69h-1.23v-1.842
		l1.23-0.616V-72.69z M293.825-75.148v-5.528l5.532,2.764L293.825-75.148z"/>
	<path display="inline" fill-rule="evenodd" clip-rule="evenodd" fill="#000333" d="M295.362-46c-4.033,0-7.303,3.27-7.303,7.303
		s3.27,7.303,7.303,7.303s7.303-3.27,7.303-7.303S299.396-46,295.362-46z M294.5-35.919l-2.612-2.66l1.219-1.184l1.4,1.424
		l3.117-3.137l1.213,1.191L294.5-35.919z"/>
	<g display="inline">
		<g>
			<path fill-rule="evenodd" clip-rule="evenodd" fill="#000333" d="M295.362-236c-4.039,0-7.313,3.274-7.313,7.313
				c0,4.039,3.273,7.313,7.313,7.313s7.313-3.273,7.313-7.313C302.675-232.726,299.401-236,295.362-236z M298.104-227.774h-5.484
				c-0.506,0-0.914-0.409-0.914-0.914c0-0.505,0.408-0.914,0.914-0.914h5.484c0.505,0,0.914,0.409,0.914,0.914
				C299.019-228.183,298.609-227.774,298.104-227.774z"/>
		</g>
	</g>
	<g display="inline">
		<g>
			<path fill-rule="evenodd" clip-rule="evenodd" fill="#000333" d="M124.002-333.377c-16.218,0-29.379,13.143-29.379,29.379
				c0,16.218,13.161,29.375,29.379,29.375s29.375-13.157,29.375-29.375C153.377-320.234,140.22-333.377,124.002-333.377z
				 M143.019-302.268c0,1.904-1.545,3.456-3.463,3.456h-10.358v10.368c0,1.9-1.563,3.456-3.464,3.456h-3.463
				c-1.902,0-3.447-1.555-3.447-3.456v-10.368h-10.375c-1.903,0-3.448-1.551-3.448-3.456v-3.464c0-1.902,1.545-3.456,3.448-3.456
				h10.375v-10.368c0-1.9,1.545-3.453,3.447-3.453h3.463c1.9,0,3.464,1.553,3.464,3.453v10.368h10.358
				c1.918,0,3.463,1.554,3.463,3.456V-302.268z"/>
		</g>
	</g>
	<g display="inline">
		<g>
			<path fill-rule="evenodd" clip-rule="evenodd" fill="#000333" d="M295.362-312.199c-3.86,0-6.991,3.127-6.991,6.991
				c0,3.859,3.131,6.99,6.991,6.99c3.859,0,6.991-3.131,6.991-6.99C302.354-309.072,299.222-312.199,295.362-312.199z
				 M299.888-304.796c0,0.452-0.368,0.821-0.824,0.821h-2.465v2.468c0,0.452-0.372,0.822-0.824,0.822h-0.824
				c-0.452,0-0.821-0.37-0.821-0.822v-2.468h-2.469c-0.452,0-0.82-0.369-0.82-0.821v-0.824c0-0.453,0.368-0.822,0.82-0.822h2.469
				v-2.468c0-0.452,0.369-0.821,0.821-0.821h0.824c0.452,0,0.824,0.369,0.824,0.821v2.468h2.465c0.456,0,0.824,0.369,0.824,0.822
				V-304.796z"/>
		</g>
	</g>
	
		<text transform="matrix(1 0 0 1 315.8945 -308.479)" display="inline" fill="#808080" font-family="'HelveticaNeue'" font-size="6">Hex: 6eb130</text>
	
		<text transform="matrix(1 0 0 1 315.8945 -299.519)" display="inline" fill="#808080" font-family="'HelveticaNeue'" font-size="6">Dem: 15x15</text>
	
		<text transform="matrix(1 0 0 1 315.8945 -270.4136)" display="inline" fill="#808080" font-family="'HelveticaNeue'" font-size="6">Hex: 555555</text>
	
		<text transform="matrix(1 0 0 1 315.8945 -261.4536)" display="inline" fill="#808080" font-family="'HelveticaNeue'" font-size="6">Dem: 15x15</text>
	
		<text transform="matrix(1 0 0 1 315.8945 -232.3481)" display="inline" fill="#808080" font-family="'HelveticaNeue'" font-size="6">Hex: c0503a</text>
	
		<text transform="matrix(1 0 0 1 315.8945 -223.3882)" display="inline" fill="#808080" font-family="'HelveticaNeue'" font-size="6">Dem: 15x15</text>
	
		<text transform="matrix(1 0 0 1 315.8945 -194.2827)" display="inline" fill="#808080" font-family="'HelveticaNeue'" font-size="6">Hex: 1252b6</text>
	
		<text transform="matrix(1 0 0 1 315.8945 -185.3228)" display="inline" fill="#808080" font-family="'HelveticaNeue'" font-size="6">Dem: 21x21</text>
	
		<text transform="matrix(1 0 0 1 315.8945 -156.2173)" display="inline" fill="#808080" font-family="'HelveticaNeue'" font-size="6">Hex: 0064d2</text>
	
		<text transform="matrix(1 0 0 1 315.8945 -147.2573)" display="inline" fill="#808080" font-family="'HelveticaNeue'" font-size="6">Dem: 42x42 / 24x24 / 17x17 </text>
	
		<text transform="matrix(1 0 0 1 315.8945 -118.1519)" display="inline" fill="#808080" font-family="'HelveticaNeue'" font-size="6">Hex: d11421</text>
	
		<text transform="matrix(1 0 0 1 315.8945 -109.1919)" display="inline" fill="#808080" font-family="'HelveticaNeue'" font-size="6">Dem: 42x42 / 24x24 / 17x17 </text>
	
		<text transform="matrix(1 0 0 1 315.8945 -80.0859)" display="inline" fill="#808080" font-family="'HelveticaNeue'" font-size="6">Hex: f18e00</text>
	<text transform="matrix(1 0 0 1 315.8945 -71.127)" display="inline" fill="#808080" font-family="'HelveticaNeue'" font-size="6">Dem: 42x42 / 24x24 / 17x17</text>
	
		<text transform="matrix(1 0 0 1 315.8945 -42.0215)" display="inline" fill="#808080" font-family="'HelveticaNeue'" font-size="6">Hex: 5ba71b</text>
	
		<text transform="matrix(1 0 0 1 315.8945 -33.0605)" display="inline" fill="#808080" font-family="'HelveticaNeue'" font-size="6">Dem: 42x42 / 24x24 / 17x17</text>
	<text transform="matrix(1 0 0 1 315.8945 -3.9551)" display="inline" fill="#808080" font-family="'HelveticaNeue'" font-size="6">Hex: 555555</text>
	<text transform="matrix(1 0 0 1 315.8945 5.0039)" display="inline" fill="#808080" font-family="'HelveticaNeue'" font-size="6">Dem: 28x20</text>
	<text transform="matrix(1 0 0 1 315.8945 34.1094)" display="inline" fill="#808080" font-family="'HelveticaNeue'" font-size="6">Hex: 0654b7 / 909090</text>
	<text transform="matrix(1 0 0 1 315.8945 43.0703)" display="inline" fill="#808080" font-family="'HelveticaNeue'" font-size="6">Dem: 17x17</text>
	<text transform="matrix(1 0 0 1 315.8945 72.1758)" display="inline" fill="#808080" font-family="'HelveticaNeue'" font-size="6">Hex: 0654b7 / 909090</text>
	<text transform="matrix(1 0 0 1 315.8945 81.1348)" display="inline" fill="#808080" font-family="'HelveticaNeue'" font-size="6">Dem: 17x17</text>
	
		<text transform="matrix(1 0 0 1 315.8945 110.2402)" display="inline" fill="#808080" font-family="'HelveticaNeue'" font-size="6">Hex: 0654b7 / 909090</text>
	
		<text transform="matrix(1 0 0 1 315.8945 119.2012)" display="inline" fill="#808080" font-family="'HelveticaNeue'" font-size="6">Dem: 17x17</text>
	
		<text transform="matrix(1 0 0 1 445.1992 -308.479)" display="inline" fill="#808080" font-family="'HelveticaNeue'" font-size="6">Hex: f29d16 / cccccc</text>
	
		<text transform="matrix(1 0 0 1 445.1992 -299.519)" display="inline" fill="#808080" font-family="'HelveticaNeue'" font-size="6">Dem: 11x12</text>
	
		<text transform="matrix(1 0 0 1 445.1992 -270.4136)" display="inline" fill="#808080" font-family="'HelveticaNeue'" font-size="6">Hex: 555555</text>
	
		<text transform="matrix(1 0 0 1 445.1992 -261.4536)" display="inline" fill="#808080" font-family="'HelveticaNeue'" font-size="6">Dem: 21x21</text>
	
		<text transform="matrix(1 0 0 1 445.1992 -232.3481)" display="inline" fill="#808080" font-family="'HelveticaNeue'" font-size="6">Hex: 333333</text>
	
		<text transform="matrix(1 0 0 1 445.1992 -223.3882)" display="inline" fill="#808080" font-family="'HelveticaNeue'" font-size="6">Dem: 8x4</text>
	
		<text transform="matrix(1 0 0 1 445.1992 -194.2827)" display="inline" fill="#808080" font-family="'HelveticaNeue'" font-size="6">Hex: ffffff</text>
	
		<text transform="matrix(1 0 0 1 445.1992 -185.3228)" display="inline" fill="#808080" font-family="'HelveticaNeue'" font-size="6">Dem: 50x50</text>
	
		<text transform="matrix(1 0 0 1 445.1992 -156.2173)" display="inline" fill="#808080" font-family="'HelveticaNeue'" font-size="6">Hex: 555555</text>
	
		<text transform="matrix(1 0 0 1 445.1992 -147.2573)" display="inline" fill="#808080" font-family="'HelveticaNeue'" font-size="6">Dem: 17x18</text>
	
		<text transform="matrix(1 0 0 1 445.1992 -118.1519)" display="inline" fill="#808080" font-family="'HelveticaNeue'" font-size="6">Hex: 555555</text>
	
		<text transform="matrix(1 0 0 1 445.1992 -109.1919)" display="inline" fill="#808080" font-family="'HelveticaNeue'" font-size="6">Dem: 20x12</text>
	
		<text transform="matrix(1 0 0 1 445.1992 -80.0859)" display="inline" fill="#808080" font-family="'HelveticaNeue'" font-size="6">Hex: 555555</text>
	<text transform="matrix(1 0 0 1 445.1992 -71.127)" display="inline" fill="#808080" font-family="'HelveticaNeue'" font-size="6">Dem: 20x12</text>
	
		<text transform="matrix(1 0 0 1 445.1992 -42.0215)" display="inline" fill="#808080" font-family="'HelveticaNeue'" font-size="6">Hex: 7dc149</text>
	
		<text transform="matrix(1 0 0 1 445.1992 -33.0605)" display="inline" fill="#808080" font-family="'HelveticaNeue'" font-size="6">Dem: 157x157</text>
	<text transform="matrix(1 0 0 1 445.1992 -3.9551)" display="inline" fill="#808080" font-family="'HelveticaNeue'" font-size="6">Hex: 333333</text>
	<text transform="matrix(1 0 0 1 445.1992 5.0039)" display="inline" fill="#808080" font-family="'HelveticaNeue'" font-size="6">Dem: 8x4</text>
	<text transform="matrix(1 0 0 1 445.1992 34.1094)" display="inline" fill="#808080" font-family="'HelveticaNeue'" font-size="6">Hex: 555555</text>
	<text transform="matrix(1 0 0 1 445.1992 43.0703)" display="inline" fill="#808080" font-family="'HelveticaNeue'" font-size="6">Dem: 20x16</text>
	<text transform="matrix(1 0 0 1 445.1992 72.1758)" display="inline" fill="#808080" font-family="'HelveticaNeue'" font-size="6">Hex: 555555</text>
	<text transform="matrix(1 0 0 1 445.1992 81.1348)" display="inline" fill="#808080" font-family="'HelveticaNeue'" font-size="6">Dem: 12x20</text>
	
		<text transform="matrix(1 0 0 1 445.1992 110.2402)" display="inline" fill="#808080" font-family="'HelveticaNeue'" font-size="6">Hex: 555555</text>
	
		<text transform="matrix(1 0 0 1 445.1992 119.2012)" display="inline" fill="#808080" font-family="'HelveticaNeue'" font-size="6">Dem: 17x20</text>
	
		<text transform="matrix(1 0 0 1 315.8945 143.9043)" display="inline" fill="#808080" font-family="'HelveticaNeue'" font-size="6">Hex: 6eb130</text>
	
		<text transform="matrix(1 0 0 1 315.8945 152.8652)" display="inline" fill="#808080" font-family="'HelveticaNeue'" font-size="6">Dem: 20x15</text>
	
		<text transform="matrix(1 0 0 1 445.1992 143.9043)" display="inline" fill="#808080" font-family="'HelveticaNeue'" font-size="6">Hex: 555555</text>
	
		<text transform="matrix(1 0 0 1 445.1992 152.8652)" display="inline" fill="#808080" font-family="'HelveticaNeue'" font-size="6">Dem: 20x20</text>
	
		<text transform="matrix(1 0 0 1 563.8662 -309.7632)" display="inline" fill="#808080" font-family="'HelveticaNeue'" font-size="6">Hex: c2c0c0</text>
	
		<text transform="matrix(1 0 0 1 563.8662 -300.8032)" display="inline" fill="#808080" font-family="'HelveticaNeue'" font-size="6">Dem: 21x21</text>
	
		<text transform="matrix(1 0 0 1 563.8662 -271.6978)" display="inline" fill="#808080" font-family="'HelveticaNeue'" font-size="6">Hex: 555555</text>
	
		<text transform="matrix(1 0 0 1 563.8662 -262.7378)" display="inline" fill="#808080" font-family="'HelveticaNeue'" font-size="6">Dem: 24x20</text>
	
		<text transform="matrix(1 0 0 1 563.8662 -233.6323)" display="inline" fill="#808080" font-family="'HelveticaNeue'" font-size="6">Hex: 555555</text>
	
		<text transform="matrix(1 0 0 1 563.8662 -224.6724)" display="inline" fill="#808080" font-family="'HelveticaNeue'" font-size="6">Dem: 12x20</text>
	
		<text transform="matrix(1 0 0 1 563.8662 -156.2173)" display="inline" fill="#808080" font-family="'HelveticaNeue'" font-size="6">Hex: aaaaaa</text>
	
		<text transform="matrix(1 0 0 1 563.8662 -147.2573)" display="inline" fill="#808080" font-family="'HelveticaNeue'" font-size="6">Dem: 112x112</text>
	<text transform="matrix(1 0 0 1 563.8662 -194.23)" display="inline" fill="#808080" font-family="'HelveticaNeue'" font-size="6">Hex: aaaaaa</text>
	<text transform="matrix(1 0 0 1 563.8662 -185.27)" display="inline" fill="#808080" font-family="'HelveticaNeue'" font-size="6">Dem: 112x60</text>
	
		<text transform="matrix(1 0 0 1 563.8662 -119.5293)" display="inline" fill="#808080" font-family="'HelveticaNeue'" font-size="6">Hex: aaaaaa</text>
	
		<text transform="matrix(1 0 0 1 563.8662 -110.5693)" display="inline" fill="#808080" font-family="'HelveticaNeue'" font-size="6">Dem: 112x100</text>
	
		<text transform="matrix(1 0 0 1 563.8662 -81.0566)" display="inline" fill="#808080" font-family="'HelveticaNeue'" font-size="6">Hex: aaaaaa</text>
	
		<text transform="matrix(1 0 0 1 563.8662 -72.0957)" display="inline" fill="#808080" font-family="'HelveticaNeue'" font-size="6">Dem: 112x112</text>
	
		<text transform="matrix(1 0 0 1 563.8662 -42.0605)" display="inline" fill="#808080" font-family="'HelveticaNeue'" font-size="6">Hex: aaaaaa</text>
	
		<text transform="matrix(1 0 0 1 563.8662 -33.0996)" display="inline" fill="#808080" font-family="'HelveticaNeue'" font-size="6">Dem: 112x95</text>
	<text transform="matrix(1 0 0 1 563.8662 -5.7363)" display="inline" fill="#808080" font-family="'HelveticaNeue'" font-size="6">Hex: aaaaaa</text>
	<text transform="matrix(1 0 0 1 563.8662 3.2246)" display="inline" fill="#808080" font-family="'HelveticaNeue'" font-size="6">Dem: 112x39</text>
	<text transform="matrix(1 0 0 1 563.8662 33.8652)" display="inline" fill="#808080" font-family="'HelveticaNeue'" font-size="6">Hex: aaaaaa</text>
	<text transform="matrix(1 0 0 1 563.8662 42.8262)" display="inline" fill="#808080" font-family="'HelveticaNeue'" font-size="6">Dem: 112x112</text>
	<text transform="matrix(1 0 0 1 563.8662 70.3906)" display="inline" fill="#808080" font-family="'HelveticaNeue'" font-size="6">Hex: aaaaaa</text>
	<text transform="matrix(1 0 0 1 563.8662 79.3516)" display="inline" fill="#808080" font-family="'HelveticaNeue'" font-size="6">Dem: 112x112</text>
	
		<text transform="matrix(1 0 0 1 563.8662 108.3262)" display="inline" fill="#808080" font-family="'HelveticaNeue'" font-size="6">Hex: aaaaaa</text>
	
		<text transform="matrix(1 0 0 1 563.8662 117.2871)" display="inline" fill="#808080" font-family="'HelveticaNeue'" font-size="6">Dem: 112x93</text>
	
		<text transform="matrix(1 0 0 1 563.8662 142.9512)" display="inline" fill="#808080" font-family="'HelveticaNeue'" font-size="6">Hex: aaaaaa</text>
	
		<text transform="matrix(1 0 0 1 563.8662 151.9121)" display="inline" fill="#808080" font-family="'HelveticaNeue'" font-size="6">Dem: 112x112</text>
	<g>
		<path display="inline" fill="#000333" d="M573-584v21h-21v-21H573 M573.719-585h-21.438c-0.432,0-1.281-0.15-1.281,0.281v21.438
			c0,0.431,0.85,1.281,1.281,1.281h21.438c0.432,0,0.281-0.85,0.281-1.281v-21.438C574-585.15,574.15-585,573.719-585L573.719-585z"
			/>
	</g>
	<g>
		<path display="inline" fill="#000333" d="M576.5-588l0.022,28.75l-28.022,0.147L548.478-588H576 M576.522-589h-28.045
			c-0.54,0-1.478-0.063-1.478,0.478v29.045c0,0.54,0.938,1.478,1.478,1.478h28.045c0.54,0,0.478-0.938,0.478-1.478v-29.045
			C577-589.063,577.063-589,576.522-589L576.522-589z"/>
	</g>
	<g>
		<path display="inline" fill="#000333" d="M599-584v6h-15v-6H599 M599.885-585h-15.77c-0.34,0-1.115-0.225-1.115,0.115v6.771
			c0,0.339,0.775,1.115,1.115,1.115h15.77c0.34,0,0.115-0.775,0.115-1.115v-6.771C600-585.225,600.225-585,599.885-585L599.885-585z
			"/>
	</g>
	<g>
		<path display="inline" fill="#000333" d="M602-587v13h-21v-13H602 M602.729-588h-21.459c-0.426,0-1.271-0.155-1.271,0.27v13.46
			c0,0.425,0.845,1.27,1.271,1.27h21.459c0.426,0,0.271-0.845,0.271-1.27v-13.46C603-588.155,603.155-588,602.729-588L602.729-588z"
			/>
	</g>
	<g>
		<path display="inline" fill="#000333" d="M602-569v10h-21v-10H602 M602.729-570h-21.459c-0.426,0-1.271-0.155-1.271,0.27v10.46
			c0,0.425,0.845,1.27,1.271,1.27h21.459c0.426,0,0.271-0.845,0.271-1.27v-10.46C603-570.155,603.155-570,602.729-570L602.729-570z"
			/>
	</g>
	<g>
		<path display="inline" fill="#000333" d="M592.035-568.05c4.397,0,9.298,1.482,9.298,3.608s-4.9,3.608-9.298,3.608
			c-4.398,0-9.299-1.482-9.299-3.608S587.637-568.05,592.035-568.05 M592.035-568.55c-5.412,0-9.799,1.839-9.799,4.108
			s4.387,4.108,9.799,4.108c5.411,0,9.798-1.839,9.798-4.108S597.446-568.55,592.035-568.55L592.035-568.55z"/>
	</g>
	<g>
		<path display="inline" fill="#000333" d="M601-600v5h-7v-5H601 M601.003-601h-7.336c-0.55,0-0.667,0.45-0.667,1v5
			c0,0.55,0.117,1,0.667,1h7.336c0.55,0,0.997-0.45,0.997-1v-5C602-600.55,601.551-601,601.003-601L601.003-601z"/>
	</g>
	<path fill="#000333" d="M575.009-615c0.552,0,0.991,0.449,0.991,1v18c0,0.551-0.448,1-1,1h-26c-0.552,0-1-0.449-1-1v-18
		c0-0.551,0.448-1,1-1h26 M575.009-616H549c-1.1,0-2,0.9-2,2v18c0,1.1,0.9,2,2,2h26.009c1.1,0,1.991-0.9,1.991-2v-18
		C577-615.1,576.108-616,575.009-616L575.009-616z"/>
	<g display="inline">
		<rect x="-248.5" y="96.5" fill="none" stroke="#000333" stroke-linejoin="round" stroke-miterlimit="10" width="32" height="33"/>
		<rect x="-246.5" y="99.5" fill="none" stroke="#000333" stroke-linejoin="round" stroke-miterlimit="10" width="27" height="27"/>
		
			<rect x="-212.5" y="115.5" fill="none" stroke="#000333" stroke-linejoin="round" stroke-miterlimit="10" width="25" height="14"/>
		
			<ellipse fill="none" stroke="#000333" stroke-width="0.4547" stroke-linejoin="round" stroke-miterlimit="10" cx="-199.76" cy="123.138" rx="10.88" ry="4.628"/>
		
			<rect x="-213.008" y="96.5" fill="none" stroke="#000333" stroke-width="0.9095" stroke-linejoin="round" stroke-miterlimit="10" width="26.281" height="16.108"/>
		
			<rect x="-209.193" y="100.315" fill="none" stroke="#000333" stroke-width="0.4547" stroke-linejoin="round" stroke-miterlimit="10" width="18.652" height="8.478"/>
		
			<line fill="none" stroke="#000333" stroke-width="0.4547" stroke-linejoin="round" stroke-miterlimit="10" x1="-219.578" y1="99.538" x2="-216.54" y2="96.5"/>
		
			<line fill="none" stroke="#000333" stroke-width="0.4547" stroke-linejoin="round" stroke-miterlimit="10" x1="-245.859" y1="99.538" x2="-248.897" y2="96.5"/>
		
			<line fill="none" stroke="#000333" stroke-width="0.4547" stroke-linejoin="round" stroke-miterlimit="10" x1="-245.859" y1="126.716" x2="-248.897" y2="129.847"/>
		
			<line fill="none" stroke="#000333" stroke-width="0.4547" stroke-linejoin="round" stroke-miterlimit="10" x1="-219.578" y1="126.716" x2="-216.54" y2="129.847"/>
	</g>
	
		<ellipse display="inline" fill="none" stroke="#000333" stroke-width="0.1814" stroke-linejoin="round" stroke-miterlimit="10" cx="546.391" cy="-186.851" rx="4.341" ry="1.847"/>
	
		<rect x="541.104" y="-197.479" display="inline" fill="none" stroke="#000333" stroke-width="0.3629" stroke-linejoin="round" stroke-miterlimit="10" width="10.486" height="6.427"/>
	
		<rect x="527.984" y="-196.219" display="inline" fill="none" stroke="#000333" stroke-width="0.4629" stroke-linejoin="round" stroke-miterlimit="10" width="10.326" height="10.619"/>
	
		<rect x="526.6" y="-197.642" display="inline" fill="none" stroke="#000333" stroke-width="0.5869" stroke-linejoin="round" stroke-miterlimit="10" width="13.096" height="13.465"/>
	
		<rect x="541.104" y="-189.75" display="inline" fill="none" stroke="#000333" stroke-width="0.3629" stroke-linejoin="round" stroke-miterlimit="10" width="10.486" height="5.576"/>
	
		<rect x="542.627" y="-195.957" display="inline" fill="none" stroke="#000333" stroke-width="0.1814" stroke-linejoin="round" stroke-miterlimit="10" width="7.441" height="3.382"/>
	
		<line display="inline" fill="none" stroke="#000333" stroke-width="0.1814" stroke-linejoin="round" stroke-miterlimit="10" x1="538.483" y1="-196.267" x2="539.695" y2="-197.479"/>
	
		<line display="inline" fill="none" stroke="#000333" stroke-width="0.1814" stroke-linejoin="round" stroke-miterlimit="10" x1="527.998" y1="-196.267" x2="526.785" y2="-197.479"/>
	
		<line display="inline" fill="none" stroke="#000333" stroke-width="0.1814" stroke-linejoin="round" stroke-miterlimit="10" x1="527.998" y1="-185.423" x2="526.785" y2="-184.174"/>
	
		<line display="inline" fill="none" stroke="#000333" stroke-width="0.1814" stroke-linejoin="round" stroke-miterlimit="10" x1="538.483" y1="-185.423" x2="539.695" y2="-184.174"/>
</g>
<g id="Layer_2" display="none">
</g>
<g id="Layer_3">
	<polyline fill-rule="evenodd" clip-rule="evenodd" fill="#000333" points="55.626,8.073 21.61,42.391 7.764,28.543 1.147,35.768 
		21.61,55.635 62.852,14.702 55.626,8.073 	"/>
</g>
</svg>
